<mxfile host="app.diagrams.net" modified="2024-01-15T11:01:58.040Z" agent="Mozilla/5.0 (Windows NT 10.0; Win64; x64; rv:121.0) Gecko/20100101 Firefox/121.0" etag="Zf1L0agDw-MztmqDu139" version="22.1.18" type="device">
  <diagram id="C5RBs43oDa-KdzZeNtuy" name="Page-1">
    <mxGraphModel dx="1427" dy="347" grid="1" gridSize="10" guides="1" tooltips="1" connect="1" arrows="1" fold="1" page="1" pageScale="1" pageWidth="827" pageHeight="1169" math="0" shadow="0">
      <root>
        <mxCell id="WIyWlLk6GJQsqaUBKTNV-0" />
        <mxCell id="WIyWlLk6GJQsqaUBKTNV-1" parent="WIyWlLk6GJQsqaUBKTNV-0" />
        <mxCell id="dxayiS2_84eYXkXoUzV9-56" style="edgeStyle=orthogonalEdgeStyle;rounded=0;orthogonalLoop=1;jettySize=auto;html=1;exitX=1;exitY=0.5;exitDx=0;exitDy=0;exitPerimeter=0;" parent="WIyWlLk6GJQsqaUBKTNV-1" source="dxayiS2_84eYXkXoUzV9-2" edge="1">
          <mxGeometry relative="1" as="geometry">
            <mxPoint x="190" y="210" as="targetPoint" />
          </mxGeometry>
        </mxCell>
        <mxCell id="dxayiS2_84eYXkXoUzV9-2" value="Start" style="strokeWidth=2;html=1;shape=mxgraph.flowchart.start_1;whiteSpace=wrap;" parent="WIyWlLk6GJQsqaUBKTNV-1" vertex="1">
          <mxGeometry x="30" y="185" width="100" height="50" as="geometry" />
        </mxCell>
        <mxCell id="dxayiS2_84eYXkXoUzV9-64" style="edgeStyle=orthogonalEdgeStyle;rounded=0;orthogonalLoop=1;jettySize=auto;html=1;exitX=0;exitY=0.5;exitDx=0;exitDy=0;exitPerimeter=0;entryX=1;entryY=0.5;entryDx=0;entryDy=0;" parent="WIyWlLk6GJQsqaUBKTNV-1" source="dxayiS2_84eYXkXoUzV9-34" target="-0Tb398mtNT74KdttXuS-16" edge="1">
          <mxGeometry relative="1" as="geometry">
            <mxPoint x="780" y="420" as="targetPoint" />
          </mxGeometry>
        </mxCell>
        <mxCell id="dxayiS2_84eYXkXoUzV9-72" style="edgeStyle=orthogonalEdgeStyle;rounded=0;orthogonalLoop=1;jettySize=auto;html=1;exitX=0.5;exitY=1;exitDx=0;exitDy=0;exitPerimeter=0;entryX=1;entryY=0.5;entryDx=0;entryDy=0;" parent="WIyWlLk6GJQsqaUBKTNV-1" source="dxayiS2_84eYXkXoUzV9-34" target="dxayiS2_84eYXkXoUzV9-36" edge="1">
          <mxGeometry relative="1" as="geometry" />
        </mxCell>
        <mxCell id="dxayiS2_84eYXkXoUzV9-34" value="a maggiore di b ?" style="strokeWidth=2;html=1;shape=mxgraph.flowchart.decision;whiteSpace=wrap;" parent="WIyWlLk6GJQsqaUBKTNV-1" vertex="1">
          <mxGeometry x="1010" y="390" width="150" height="60" as="geometry" />
        </mxCell>
        <mxCell id="dxayiS2_84eYXkXoUzV9-38" value="True" style="text;html=1;align=center;verticalAlign=middle;resizable=0;points=[];autosize=1;strokeColor=none;fillColor=none;" parent="WIyWlLk6GJQsqaUBKTNV-1" vertex="1">
          <mxGeometry x="980" y="490" width="50" height="30" as="geometry" />
        </mxCell>
        <mxCell id="-0Tb398mtNT74KdttXuS-20" style="edgeStyle=orthogonalEdgeStyle;rounded=0;orthogonalLoop=1;jettySize=auto;html=1;exitX=0.5;exitY=0;exitDx=0;exitDy=0;entryX=0.5;entryY=1;entryDx=0;entryDy=0;" parent="WIyWlLk6GJQsqaUBKTNV-1" source="dxayiS2_84eYXkXoUzV9-36" target="-0Tb398mtNT74KdttXuS-16" edge="1">
          <mxGeometry relative="1" as="geometry" />
        </mxCell>
        <mxCell id="dxayiS2_84eYXkXoUzV9-36" value="Scambia i valori&lt;br&gt;tra a e b" style="rounded=1;whiteSpace=wrap;html=1;absoluteArcSize=1;arcSize=14;strokeWidth=2;" parent="WIyWlLk6GJQsqaUBKTNV-1" vertex="1">
          <mxGeometry x="535" y="500" width="110" height="40" as="geometry" />
        </mxCell>
        <mxCell id="dxayiS2_84eYXkXoUzV9-78" style="edgeStyle=orthogonalEdgeStyle;rounded=0;orthogonalLoop=1;jettySize=auto;html=1;exitX=0.5;exitY=1;exitDx=0;exitDy=0;exitPerimeter=0;entryX=0.5;entryY=0;entryDx=0;entryDy=0;" parent="WIyWlLk6GJQsqaUBKTNV-1" source="dxayiS2_84eYXkXoUzV9-74" target="dxayiS2_84eYXkXoUzV9-77" edge="1">
          <mxGeometry relative="1" as="geometry" />
        </mxCell>
        <mxCell id="dxayiS2_84eYXkXoUzV9-74" value="While (True)" style="strokeWidth=2;html=1;shape=mxgraph.flowchart.decision;whiteSpace=wrap;" parent="WIyWlLk6GJQsqaUBKTNV-1" vertex="1">
          <mxGeometry x="100" y="650" width="160" height="80" as="geometry" />
        </mxCell>
        <mxCell id="dxayiS2_84eYXkXoUzV9-84" style="edgeStyle=orthogonalEdgeStyle;rounded=0;orthogonalLoop=1;jettySize=auto;html=1;exitX=0.5;exitY=1;exitDx=0;exitDy=0;" parent="WIyWlLk6GJQsqaUBKTNV-1" source="dxayiS2_84eYXkXoUzV9-77" target="dxayiS2_84eYXkXoUzV9-79" edge="1">
          <mxGeometry relative="1" as="geometry" />
        </mxCell>
        <mxCell id="dxayiS2_84eYXkXoUzV9-77" value="Switch(scelta)" style="rounded=1;whiteSpace=wrap;html=1;absoluteArcSize=1;arcSize=14;strokeWidth=2;" parent="WIyWlLk6GJQsqaUBKTNV-1" vertex="1">
          <mxGeometry x="130" y="770" width="100" height="60" as="geometry" />
        </mxCell>
        <mxCell id="dxayiS2_84eYXkXoUzV9-85" style="edgeStyle=orthogonalEdgeStyle;rounded=0;orthogonalLoop=1;jettySize=auto;html=1;exitX=0.5;exitY=1;exitDx=0;exitDy=0;exitPerimeter=0;entryX=0.5;entryY=0;entryDx=0;entryDy=0;entryPerimeter=0;" parent="WIyWlLk6GJQsqaUBKTNV-1" source="dxayiS2_84eYXkXoUzV9-79" target="dxayiS2_84eYXkXoUzV9-80" edge="1">
          <mxGeometry relative="1" as="geometry" />
        </mxCell>
        <mxCell id="dxayiS2_84eYXkXoUzV9-93" style="edgeStyle=orthogonalEdgeStyle;rounded=0;orthogonalLoop=1;jettySize=auto;html=1;exitX=1;exitY=0.5;exitDx=0;exitDy=0;exitPerimeter=0;entryX=0;entryY=0.5;entryDx=0;entryDy=0;" parent="WIyWlLk6GJQsqaUBKTNV-1" source="dxayiS2_84eYXkXoUzV9-79" edge="1">
          <mxGeometry relative="1" as="geometry">
            <mxPoint x="335.75" y="905" as="targetPoint" />
          </mxGeometry>
        </mxCell>
        <mxCell id="dxayiS2_84eYXkXoUzV9-79" value="scelta == 1" style="strokeWidth=2;html=1;shape=mxgraph.flowchart.decision;whiteSpace=wrap;" parent="WIyWlLk6GJQsqaUBKTNV-1" vertex="1">
          <mxGeometry x="105" y="870" width="150" height="70" as="geometry" />
        </mxCell>
        <mxCell id="dxayiS2_84eYXkXoUzV9-86" style="edgeStyle=orthogonalEdgeStyle;rounded=0;orthogonalLoop=1;jettySize=auto;html=1;exitX=0.5;exitY=1;exitDx=0;exitDy=0;exitPerimeter=0;entryX=0.5;entryY=0;entryDx=0;entryDy=0;entryPerimeter=0;" parent="WIyWlLk6GJQsqaUBKTNV-1" source="dxayiS2_84eYXkXoUzV9-80" target="dxayiS2_84eYXkXoUzV9-81" edge="1">
          <mxGeometry relative="1" as="geometry" />
        </mxCell>
        <mxCell id="dxayiS2_84eYXkXoUzV9-111" style="edgeStyle=orthogonalEdgeStyle;rounded=0;orthogonalLoop=1;jettySize=auto;html=1;exitX=1;exitY=0.5;exitDx=0;exitDy=0;exitPerimeter=0;entryX=0;entryY=0.5;entryDx=0;entryDy=0;" parent="WIyWlLk6GJQsqaUBKTNV-1" source="dxayiS2_84eYXkXoUzV9-80" edge="1">
          <mxGeometry relative="1" as="geometry">
            <mxPoint x="336" y="1005" as="targetPoint" />
          </mxGeometry>
        </mxCell>
        <mxCell id="dxayiS2_84eYXkXoUzV9-80" value="scelta == 2" style="strokeWidth=2;html=1;shape=mxgraph.flowchart.decision;whiteSpace=wrap;" parent="WIyWlLk6GJQsqaUBKTNV-1" vertex="1">
          <mxGeometry x="105" y="970" width="150" height="70" as="geometry" />
        </mxCell>
        <mxCell id="dxayiS2_84eYXkXoUzV9-91" style="edgeStyle=orthogonalEdgeStyle;rounded=0;orthogonalLoop=1;jettySize=auto;html=1;exitX=0.5;exitY=1;exitDx=0;exitDy=0;exitPerimeter=0;" parent="WIyWlLk6GJQsqaUBKTNV-1" source="dxayiS2_84eYXkXoUzV9-81" target="dxayiS2_84eYXkXoUzV9-82" edge="1">
          <mxGeometry relative="1" as="geometry" />
        </mxCell>
        <mxCell id="dxayiS2_84eYXkXoUzV9-112" style="edgeStyle=orthogonalEdgeStyle;rounded=0;orthogonalLoop=1;jettySize=auto;html=1;exitX=1;exitY=0.5;exitDx=0;exitDy=0;exitPerimeter=0;entryX=0;entryY=0.5;entryDx=0;entryDy=0;" parent="WIyWlLk6GJQsqaUBKTNV-1" source="dxayiS2_84eYXkXoUzV9-81" edge="1">
          <mxGeometry relative="1" as="geometry">
            <mxPoint x="336" y="1115" as="targetPoint" />
          </mxGeometry>
        </mxCell>
        <mxCell id="dxayiS2_84eYXkXoUzV9-81" value="scelta == 3" style="strokeWidth=2;html=1;shape=mxgraph.flowchart.decision;whiteSpace=wrap;" parent="WIyWlLk6GJQsqaUBKTNV-1" vertex="1">
          <mxGeometry x="105" y="1080" width="150" height="70" as="geometry" />
        </mxCell>
        <mxCell id="dxayiS2_84eYXkXoUzV9-89" style="edgeStyle=orthogonalEdgeStyle;rounded=0;orthogonalLoop=1;jettySize=auto;html=1;exitX=0.5;exitY=1;exitDx=0;exitDy=0;exitPerimeter=0;" parent="WIyWlLk6GJQsqaUBKTNV-1" source="dxayiS2_84eYXkXoUzV9-82" target="dxayiS2_84eYXkXoUzV9-83" edge="1">
          <mxGeometry relative="1" as="geometry" />
        </mxCell>
        <mxCell id="dxayiS2_84eYXkXoUzV9-113" style="edgeStyle=orthogonalEdgeStyle;rounded=0;orthogonalLoop=1;jettySize=auto;html=1;exitX=1;exitY=0.5;exitDx=0;exitDy=0;exitPerimeter=0;entryX=0;entryY=0.5;entryDx=0;entryDy=0;" parent="WIyWlLk6GJQsqaUBKTNV-1" source="dxayiS2_84eYXkXoUzV9-82" edge="1">
          <mxGeometry relative="1" as="geometry">
            <mxPoint x="336" y="1215" as="targetPoint" />
          </mxGeometry>
        </mxCell>
        <mxCell id="dxayiS2_84eYXkXoUzV9-82" value="scelta == 4" style="strokeWidth=2;html=1;shape=mxgraph.flowchart.decision;whiteSpace=wrap;" parent="WIyWlLk6GJQsqaUBKTNV-1" vertex="1">
          <mxGeometry x="105" y="1180" width="150" height="70" as="geometry" />
        </mxCell>
        <mxCell id="dxayiS2_84eYXkXoUzV9-114" style="edgeStyle=orthogonalEdgeStyle;rounded=0;orthogonalLoop=1;jettySize=auto;html=1;exitX=1;exitY=0.5;exitDx=0;exitDy=0;exitPerimeter=0;entryX=0;entryY=0.5;entryDx=0;entryDy=0;" parent="WIyWlLk6GJQsqaUBKTNV-1" source="dxayiS2_84eYXkXoUzV9-83" edge="1">
          <mxGeometry relative="1" as="geometry">
            <mxPoint x="336" y="1315" as="targetPoint" />
          </mxGeometry>
        </mxCell>
        <mxCell id="dxayiS2_84eYXkXoUzV9-83" value="scelta == 5" style="strokeWidth=2;html=1;shape=mxgraph.flowchart.decision;whiteSpace=wrap;" parent="WIyWlLk6GJQsqaUBKTNV-1" vertex="1">
          <mxGeometry x="105" y="1280" width="150" height="70" as="geometry" />
        </mxCell>
        <mxCell id="-0Tb398mtNT74KdttXuS-57" style="edgeStyle=orthogonalEdgeStyle;rounded=0;orthogonalLoop=1;jettySize=auto;html=1;exitX=1;exitY=0.5;exitDx=0;exitDy=0;entryX=0;entryY=0.5;entryDx=0;entryDy=0;" parent="WIyWlLk6GJQsqaUBKTNV-1" edge="1">
          <mxGeometry relative="1" as="geometry">
            <mxPoint x="490" y="905" as="sourcePoint" />
            <mxPoint x="626" y="905" as="targetPoint" />
          </mxGeometry>
        </mxCell>
        <mxCell id="dxayiS2_84eYXkXoUzV9-116" style="edgeStyle=orthogonalEdgeStyle;rounded=0;orthogonalLoop=1;jettySize=auto;html=1;exitX=1;exitY=0.5;exitDx=0;exitDy=0;entryX=1;entryY=0.5;entryDx=0;entryDy=0;entryPerimeter=0;" parent="WIyWlLk6GJQsqaUBKTNV-1" target="dxayiS2_84eYXkXoUzV9-115" edge="1">
          <mxGeometry relative="1" as="geometry">
            <Array as="points">
              <mxPoint x="880" y="905" />
              <mxPoint x="880" y="1460" />
            </Array>
            <mxPoint x="780.25" y="905" as="sourcePoint" />
          </mxGeometry>
        </mxCell>
        <mxCell id="-0Tb398mtNT74KdttXuS-59" style="edgeStyle=orthogonalEdgeStyle;rounded=0;orthogonalLoop=1;jettySize=auto;html=1;exitX=1;exitY=0.5;exitDx=0;exitDy=0;entryX=0;entryY=0.5;entryDx=0;entryDy=0;" parent="WIyWlLk6GJQsqaUBKTNV-1" edge="1">
          <mxGeometry relative="1" as="geometry">
            <mxPoint x="490.25" y="1005" as="sourcePoint" />
            <mxPoint x="626" y="1005" as="targetPoint" />
          </mxGeometry>
        </mxCell>
        <mxCell id="dxayiS2_84eYXkXoUzV9-117" style="edgeStyle=orthogonalEdgeStyle;rounded=0;orthogonalLoop=1;jettySize=auto;html=1;exitX=1;exitY=0.5;exitDx=0;exitDy=0;" parent="WIyWlLk6GJQsqaUBKTNV-1" edge="1">
          <mxGeometry relative="1" as="geometry">
            <mxPoint x="880" y="1005" as="targetPoint" />
            <mxPoint x="780.25" y="1005" as="sourcePoint" />
          </mxGeometry>
        </mxCell>
        <mxCell id="-0Tb398mtNT74KdttXuS-60" style="edgeStyle=orthogonalEdgeStyle;rounded=0;orthogonalLoop=1;jettySize=auto;html=1;exitX=1;exitY=0.5;exitDx=0;exitDy=0;entryX=0;entryY=0.5;entryDx=0;entryDy=0;" parent="WIyWlLk6GJQsqaUBKTNV-1" edge="1">
          <mxGeometry relative="1" as="geometry">
            <mxPoint x="490.25" y="1115" as="sourcePoint" />
            <mxPoint x="626" y="1115" as="targetPoint" />
          </mxGeometry>
        </mxCell>
        <mxCell id="dxayiS2_84eYXkXoUzV9-118" style="edgeStyle=orthogonalEdgeStyle;rounded=0;orthogonalLoop=1;jettySize=auto;html=1;exitX=1;exitY=0.5;exitDx=0;exitDy=0;" parent="WIyWlLk6GJQsqaUBKTNV-1" edge="1">
          <mxGeometry relative="1" as="geometry">
            <mxPoint x="880" y="1115" as="targetPoint" />
            <mxPoint x="780.25" y="1115" as="sourcePoint" />
          </mxGeometry>
        </mxCell>
        <mxCell id="-0Tb398mtNT74KdttXuS-61" style="edgeStyle=orthogonalEdgeStyle;rounded=0;orthogonalLoop=1;jettySize=auto;html=1;exitX=1;exitY=0.5;exitDx=0;exitDy=0;entryX=0;entryY=0.5;entryDx=0;entryDy=0;" parent="WIyWlLk6GJQsqaUBKTNV-1" edge="1">
          <mxGeometry relative="1" as="geometry">
            <mxPoint x="490.25" y="1215" as="sourcePoint" />
            <mxPoint x="626" y="1215" as="targetPoint" />
          </mxGeometry>
        </mxCell>
        <mxCell id="dxayiS2_84eYXkXoUzV9-119" style="edgeStyle=orthogonalEdgeStyle;rounded=0;orthogonalLoop=1;jettySize=auto;html=1;exitX=1;exitY=0.5;exitDx=0;exitDy=0;" parent="WIyWlLk6GJQsqaUBKTNV-1" edge="1">
          <mxGeometry relative="1" as="geometry">
            <mxPoint x="880" y="1215" as="targetPoint" />
            <mxPoint x="780.25" y="1215" as="sourcePoint" />
          </mxGeometry>
        </mxCell>
        <mxCell id="-0Tb398mtNT74KdttXuS-62" style="edgeStyle=orthogonalEdgeStyle;rounded=0;orthogonalLoop=1;jettySize=auto;html=1;exitX=1;exitY=0.5;exitDx=0;exitDy=0;entryX=0;entryY=0.5;entryDx=0;entryDy=0;" parent="WIyWlLk6GJQsqaUBKTNV-1" edge="1">
          <mxGeometry relative="1" as="geometry">
            <mxPoint x="490.25" y="1315" as="sourcePoint" />
            <mxPoint x="626" y="1315" as="targetPoint" />
          </mxGeometry>
        </mxCell>
        <mxCell id="dxayiS2_84eYXkXoUzV9-120" style="edgeStyle=orthogonalEdgeStyle;rounded=0;orthogonalLoop=1;jettySize=auto;html=1;exitX=1;exitY=0.5;exitDx=0;exitDy=0;" parent="WIyWlLk6GJQsqaUBKTNV-1" edge="1">
          <mxGeometry relative="1" as="geometry">
            <mxPoint x="880" y="1315" as="targetPoint" />
            <mxPoint x="780.25" y="1315" as="sourcePoint" />
          </mxGeometry>
        </mxCell>
        <mxCell id="dxayiS2_84eYXkXoUzV9-122" style="edgeStyle=orthogonalEdgeStyle;rounded=0;orthogonalLoop=1;jettySize=auto;html=1;exitX=0.5;exitY=1;exitDx=0;exitDy=0;exitPerimeter=0;entryX=0.5;entryY=0;entryDx=0;entryDy=0;" parent="WIyWlLk6GJQsqaUBKTNV-1" source="dxayiS2_84eYXkXoUzV9-115" target="dxayiS2_84eYXkXoUzV9-121" edge="1">
          <mxGeometry relative="1" as="geometry" />
        </mxCell>
        <mxCell id="dxayiS2_84eYXkXoUzV9-126" style="edgeStyle=orthogonalEdgeStyle;rounded=0;orthogonalLoop=1;jettySize=auto;html=1;exitX=0;exitY=0.5;exitDx=0;exitDy=0;exitPerimeter=0;entryX=0.5;entryY=1;entryDx=0;entryDy=0;" parent="WIyWlLk6GJQsqaUBKTNV-1" source="dxayiS2_84eYXkXoUzV9-115" target="dxayiS2_84eYXkXoUzV9-125" edge="1">
          <mxGeometry relative="1" as="geometry" />
        </mxCell>
        <mxCell id="dxayiS2_84eYXkXoUzV9-115" value="(in-i2n) è minore della&lt;br&gt;accuratezza?" style="strokeWidth=2;html=1;shape=mxgraph.flowchart.decision;whiteSpace=wrap;" parent="WIyWlLk6GJQsqaUBKTNV-1" vertex="1">
          <mxGeometry x="80" y="1410" width="200" height="100" as="geometry" />
        </mxCell>
        <mxCell id="-0Tb398mtNT74KdttXuS-30" style="edgeStyle=orthogonalEdgeStyle;rounded=0;orthogonalLoop=1;jettySize=auto;html=1;exitX=0.5;exitY=1;exitDx=0;exitDy=0;entryX=0.5;entryY=0;entryDx=0;entryDy=0;entryPerimeter=0;" parent="WIyWlLk6GJQsqaUBKTNV-1" source="dxayiS2_84eYXkXoUzV9-121" target="dxayiS2_84eYXkXoUzV9-132" edge="1">
          <mxGeometry relative="1" as="geometry" />
        </mxCell>
        <mxCell id="dxayiS2_84eYXkXoUzV9-121" value="stampo il risultato con&lt;br&gt;il metodo del punto medio" style="shape=parallelogram;html=1;strokeWidth=2;perimeter=parallelogramPerimeter;whiteSpace=wrap;rounded=1;arcSize=12;size=0.23;" parent="WIyWlLk6GJQsqaUBKTNV-1" vertex="1">
          <mxGeometry x="75" y="1590" width="210" height="60" as="geometry" />
        </mxCell>
        <mxCell id="dxayiS2_84eYXkXoUzV9-127" style="edgeStyle=orthogonalEdgeStyle;rounded=0;orthogonalLoop=1;jettySize=auto;html=1;exitX=0.5;exitY=0;exitDx=0;exitDy=0;entryX=0;entryY=0.5;entryDx=0;entryDy=0;entryPerimeter=0;" parent="WIyWlLk6GJQsqaUBKTNV-1" source="dxayiS2_84eYXkXoUzV9-125" target="dxayiS2_84eYXkXoUzV9-74" edge="1">
          <mxGeometry relative="1" as="geometry" />
        </mxCell>
        <mxCell id="dxayiS2_84eYXkXoUzV9-125" value="raddoppio n" style="rounded=1;whiteSpace=wrap;html=1;absoluteArcSize=1;arcSize=14;strokeWidth=2;" parent="WIyWlLk6GJQsqaUBKTNV-1" vertex="1">
          <mxGeometry x="-130" y="1040" width="160" height="55" as="geometry" />
        </mxCell>
        <mxCell id="dxayiS2_84eYXkXoUzV9-128" value="True" style="text;html=1;align=center;verticalAlign=middle;resizable=0;points=[];autosize=1;strokeColor=none;fillColor=none;" parent="WIyWlLk6GJQsqaUBKTNV-1" vertex="1">
          <mxGeometry x="175" y="1525" width="50" height="30" as="geometry" />
        </mxCell>
        <mxCell id="dxayiS2_84eYXkXoUzV9-130" value="False" style="text;html=1;align=center;verticalAlign=middle;resizable=0;points=[];autosize=1;strokeColor=none;fillColor=none;" parent="WIyWlLk6GJQsqaUBKTNV-1" vertex="1">
          <mxGeometry x="30" y="1430" width="50" height="30" as="geometry" />
        </mxCell>
        <mxCell id="dxayiS2_84eYXkXoUzV9-131" style="edgeStyle=orthogonalEdgeStyle;rounded=0;orthogonalLoop=1;jettySize=auto;html=1;exitX=0.5;exitY=1;exitDx=0;exitDy=0;exitPerimeter=0;entryX=0.5;entryY=0;entryDx=0;entryDy=0;" parent="WIyWlLk6GJQsqaUBKTNV-1" source="dxayiS2_84eYXkXoUzV9-132" target="dxayiS2_84eYXkXoUzV9-134" edge="1">
          <mxGeometry relative="1" as="geometry" />
        </mxCell>
        <mxCell id="dxayiS2_84eYXkXoUzV9-132" value="While (True)" style="strokeWidth=2;html=1;shape=mxgraph.flowchart.decision;whiteSpace=wrap;" parent="WIyWlLk6GJQsqaUBKTNV-1" vertex="1">
          <mxGeometry x="100" y="1740" width="160" height="80" as="geometry" />
        </mxCell>
        <mxCell id="dxayiS2_84eYXkXoUzV9-133" style="edgeStyle=orthogonalEdgeStyle;rounded=0;orthogonalLoop=1;jettySize=auto;html=1;exitX=0.5;exitY=1;exitDx=0;exitDy=0;" parent="WIyWlLk6GJQsqaUBKTNV-1" source="dxayiS2_84eYXkXoUzV9-134" target="dxayiS2_84eYXkXoUzV9-137" edge="1">
          <mxGeometry relative="1" as="geometry" />
        </mxCell>
        <mxCell id="dxayiS2_84eYXkXoUzV9-134" value="Switch(scelta)" style="rounded=1;whiteSpace=wrap;html=1;absoluteArcSize=1;arcSize=14;strokeWidth=2;" parent="WIyWlLk6GJQsqaUBKTNV-1" vertex="1">
          <mxGeometry x="130" y="1860" width="100" height="60" as="geometry" />
        </mxCell>
        <mxCell id="dxayiS2_84eYXkXoUzV9-135" style="edgeStyle=orthogonalEdgeStyle;rounded=0;orthogonalLoop=1;jettySize=auto;html=1;exitX=0.5;exitY=1;exitDx=0;exitDy=0;exitPerimeter=0;entryX=0.5;entryY=0;entryDx=0;entryDy=0;entryPerimeter=0;" parent="WIyWlLk6GJQsqaUBKTNV-1" source="dxayiS2_84eYXkXoUzV9-137" target="dxayiS2_84eYXkXoUzV9-140" edge="1">
          <mxGeometry relative="1" as="geometry" />
        </mxCell>
        <mxCell id="dxayiS2_84eYXkXoUzV9-136" style="edgeStyle=orthogonalEdgeStyle;rounded=0;orthogonalLoop=1;jettySize=auto;html=1;exitX=1;exitY=0.5;exitDx=0;exitDy=0;exitPerimeter=0;entryX=0;entryY=0.5;entryDx=0;entryDy=0;" parent="WIyWlLk6GJQsqaUBKTNV-1" source="dxayiS2_84eYXkXoUzV9-137" edge="1">
          <mxGeometry relative="1" as="geometry">
            <mxPoint x="330" y="1995" as="targetPoint" />
          </mxGeometry>
        </mxCell>
        <mxCell id="dxayiS2_84eYXkXoUzV9-137" value="scelta == 1" style="strokeWidth=2;html=1;shape=mxgraph.flowchart.decision;whiteSpace=wrap;" parent="WIyWlLk6GJQsqaUBKTNV-1" vertex="1">
          <mxGeometry x="105" y="1960" width="150" height="70" as="geometry" />
        </mxCell>
        <mxCell id="dxayiS2_84eYXkXoUzV9-138" style="edgeStyle=orthogonalEdgeStyle;rounded=0;orthogonalLoop=1;jettySize=auto;html=1;exitX=0.5;exitY=1;exitDx=0;exitDy=0;exitPerimeter=0;entryX=0.5;entryY=0;entryDx=0;entryDy=0;entryPerimeter=0;" parent="WIyWlLk6GJQsqaUBKTNV-1" source="dxayiS2_84eYXkXoUzV9-140" target="dxayiS2_84eYXkXoUzV9-143" edge="1">
          <mxGeometry relative="1" as="geometry" />
        </mxCell>
        <mxCell id="dxayiS2_84eYXkXoUzV9-139" style="edgeStyle=orthogonalEdgeStyle;rounded=0;orthogonalLoop=1;jettySize=auto;html=1;exitX=1;exitY=0.5;exitDx=0;exitDy=0;exitPerimeter=0;entryX=0;entryY=0.5;entryDx=0;entryDy=0;" parent="WIyWlLk6GJQsqaUBKTNV-1" source="dxayiS2_84eYXkXoUzV9-140" edge="1">
          <mxGeometry relative="1" as="geometry">
            <mxPoint x="330" y="2095" as="targetPoint" />
          </mxGeometry>
        </mxCell>
        <mxCell id="dxayiS2_84eYXkXoUzV9-140" value="scelta == 2" style="strokeWidth=2;html=1;shape=mxgraph.flowchart.decision;whiteSpace=wrap;" parent="WIyWlLk6GJQsqaUBKTNV-1" vertex="1">
          <mxGeometry x="105" y="2060" width="150" height="70" as="geometry" />
        </mxCell>
        <mxCell id="dxayiS2_84eYXkXoUzV9-141" style="edgeStyle=orthogonalEdgeStyle;rounded=0;orthogonalLoop=1;jettySize=auto;html=1;exitX=0.5;exitY=1;exitDx=0;exitDy=0;exitPerimeter=0;" parent="WIyWlLk6GJQsqaUBKTNV-1" source="dxayiS2_84eYXkXoUzV9-143" target="dxayiS2_84eYXkXoUzV9-146" edge="1">
          <mxGeometry relative="1" as="geometry" />
        </mxCell>
        <mxCell id="dxayiS2_84eYXkXoUzV9-142" style="edgeStyle=orthogonalEdgeStyle;rounded=0;orthogonalLoop=1;jettySize=auto;html=1;exitX=1;exitY=0.5;exitDx=0;exitDy=0;exitPerimeter=0;entryX=0;entryY=0.5;entryDx=0;entryDy=0;" parent="WIyWlLk6GJQsqaUBKTNV-1" source="dxayiS2_84eYXkXoUzV9-143" edge="1">
          <mxGeometry relative="1" as="geometry">
            <mxPoint x="330" y="2205" as="targetPoint" />
          </mxGeometry>
        </mxCell>
        <mxCell id="dxayiS2_84eYXkXoUzV9-143" value="scelta == 3" style="strokeWidth=2;html=1;shape=mxgraph.flowchart.decision;whiteSpace=wrap;" parent="WIyWlLk6GJQsqaUBKTNV-1" vertex="1">
          <mxGeometry x="105" y="2170" width="150" height="70" as="geometry" />
        </mxCell>
        <mxCell id="dxayiS2_84eYXkXoUzV9-144" style="edgeStyle=orthogonalEdgeStyle;rounded=0;orthogonalLoop=1;jettySize=auto;html=1;exitX=0.5;exitY=1;exitDx=0;exitDy=0;exitPerimeter=0;" parent="WIyWlLk6GJQsqaUBKTNV-1" source="dxayiS2_84eYXkXoUzV9-146" target="dxayiS2_84eYXkXoUzV9-148" edge="1">
          <mxGeometry relative="1" as="geometry" />
        </mxCell>
        <mxCell id="dxayiS2_84eYXkXoUzV9-145" style="edgeStyle=orthogonalEdgeStyle;rounded=0;orthogonalLoop=1;jettySize=auto;html=1;exitX=1;exitY=0.5;exitDx=0;exitDy=0;exitPerimeter=0;entryX=0;entryY=0.5;entryDx=0;entryDy=0;" parent="WIyWlLk6GJQsqaUBKTNV-1" source="dxayiS2_84eYXkXoUzV9-146" edge="1">
          <mxGeometry relative="1" as="geometry">
            <mxPoint x="329.75" y="2305" as="targetPoint" />
          </mxGeometry>
        </mxCell>
        <mxCell id="dxayiS2_84eYXkXoUzV9-146" value="scelta == 4" style="strokeWidth=2;html=1;shape=mxgraph.flowchart.decision;whiteSpace=wrap;" parent="WIyWlLk6GJQsqaUBKTNV-1" vertex="1">
          <mxGeometry x="105" y="2270" width="150" height="70" as="geometry" />
        </mxCell>
        <mxCell id="dxayiS2_84eYXkXoUzV9-147" style="edgeStyle=orthogonalEdgeStyle;rounded=0;orthogonalLoop=1;jettySize=auto;html=1;exitX=1;exitY=0.5;exitDx=0;exitDy=0;exitPerimeter=0;entryX=0;entryY=0.5;entryDx=0;entryDy=0;" parent="WIyWlLk6GJQsqaUBKTNV-1" source="dxayiS2_84eYXkXoUzV9-148" edge="1">
          <mxGeometry relative="1" as="geometry">
            <mxPoint x="330" y="2405" as="targetPoint" />
          </mxGeometry>
        </mxCell>
        <mxCell id="dxayiS2_84eYXkXoUzV9-148" value="scelta == 5" style="strokeWidth=2;html=1;shape=mxgraph.flowchart.decision;whiteSpace=wrap;" parent="WIyWlLk6GJQsqaUBKTNV-1" vertex="1">
          <mxGeometry x="105" y="2370" width="150" height="70" as="geometry" />
        </mxCell>
        <mxCell id="dxayiS2_84eYXkXoUzV9-151" style="edgeStyle=orthogonalEdgeStyle;rounded=0;orthogonalLoop=1;jettySize=auto;html=1;exitX=1;exitY=0.5;exitDx=0;exitDy=0;entryX=1;entryY=0.5;entryDx=0;entryDy=0;entryPerimeter=0;" parent="WIyWlLk6GJQsqaUBKTNV-1" target="dxayiS2_84eYXkXoUzV9-171" edge="1">
          <mxGeometry relative="1" as="geometry">
            <Array as="points">
              <mxPoint x="880" y="1995" />
              <mxPoint x="880" y="2550" />
            </Array>
            <mxPoint x="750" y="1995" as="sourcePoint" />
          </mxGeometry>
        </mxCell>
        <mxCell id="dxayiS2_84eYXkXoUzV9-153" style="edgeStyle=orthogonalEdgeStyle;rounded=0;orthogonalLoop=1;jettySize=auto;html=1;exitX=1;exitY=0.5;exitDx=0;exitDy=0;entryX=0.001;entryY=0.5;entryDx=0;entryDy=0;entryPerimeter=0;" parent="WIyWlLk6GJQsqaUBKTNV-1" target="Mil7X2L2uE1XehQc7Dlf-17" edge="1">
          <mxGeometry relative="1" as="geometry">
            <mxPoint x="514.25" y="2094.5" as="sourcePoint" />
            <mxPoint x="590" y="2094.5" as="targetPoint" />
          </mxGeometry>
        </mxCell>
        <mxCell id="dxayiS2_84eYXkXoUzV9-169" style="edgeStyle=orthogonalEdgeStyle;rounded=0;orthogonalLoop=1;jettySize=auto;html=1;exitX=0.5;exitY=1;exitDx=0;exitDy=0;exitPerimeter=0;entryX=0.5;entryY=0;entryDx=0;entryDy=0;" parent="WIyWlLk6GJQsqaUBKTNV-1" source="dxayiS2_84eYXkXoUzV9-171" target="dxayiS2_84eYXkXoUzV9-172" edge="1">
          <mxGeometry relative="1" as="geometry" />
        </mxCell>
        <mxCell id="dxayiS2_84eYXkXoUzV9-170" style="edgeStyle=orthogonalEdgeStyle;rounded=0;orthogonalLoop=1;jettySize=auto;html=1;exitX=0;exitY=0.5;exitDx=0;exitDy=0;exitPerimeter=0;entryX=0.5;entryY=1;entryDx=0;entryDy=0;" parent="WIyWlLk6GJQsqaUBKTNV-1" source="dxayiS2_84eYXkXoUzV9-171" target="dxayiS2_84eYXkXoUzV9-174" edge="1">
          <mxGeometry relative="1" as="geometry" />
        </mxCell>
        <mxCell id="dxayiS2_84eYXkXoUzV9-171" value="(im-i2m) è minore della&lt;br&gt;accuratezza?" style="strokeWidth=2;html=1;shape=mxgraph.flowchart.decision;whiteSpace=wrap;" parent="WIyWlLk6GJQsqaUBKTNV-1" vertex="1">
          <mxGeometry x="80" y="2500" width="200" height="100" as="geometry" />
        </mxCell>
        <mxCell id="dxayiS2_84eYXkXoUzV9-179" style="edgeStyle=orthogonalEdgeStyle;rounded=0;orthogonalLoop=1;jettySize=auto;html=1;exitX=0.5;exitY=1;exitDx=0;exitDy=0;" parent="WIyWlLk6GJQsqaUBKTNV-1" source="dxayiS2_84eYXkXoUzV9-172" target="dxayiS2_84eYXkXoUzV9-178" edge="1">
          <mxGeometry relative="1" as="geometry" />
        </mxCell>
        <mxCell id="dxayiS2_84eYXkXoUzV9-172" value="stampo il risultato con&lt;br&gt;il metodo di Cavalieri&lt;br&gt;Simpson" style="shape=parallelogram;html=1;strokeWidth=2;perimeter=parallelogramPerimeter;whiteSpace=wrap;rounded=1;arcSize=12;size=0.23;" parent="WIyWlLk6GJQsqaUBKTNV-1" vertex="1">
          <mxGeometry x="75" y="2680" width="210" height="60" as="geometry" />
        </mxCell>
        <mxCell id="dxayiS2_84eYXkXoUzV9-173" style="edgeStyle=orthogonalEdgeStyle;rounded=0;orthogonalLoop=1;jettySize=auto;html=1;exitX=0.5;exitY=0;exitDx=0;exitDy=0;entryX=0;entryY=0.5;entryDx=0;entryDy=0;entryPerimeter=0;" parent="WIyWlLk6GJQsqaUBKTNV-1" source="dxayiS2_84eYXkXoUzV9-174" target="dxayiS2_84eYXkXoUzV9-132" edge="1">
          <mxGeometry relative="1" as="geometry" />
        </mxCell>
        <mxCell id="dxayiS2_84eYXkXoUzV9-174" value="raddoppio m" style="rounded=1;whiteSpace=wrap;html=1;absoluteArcSize=1;arcSize=14;strokeWidth=2;" parent="WIyWlLk6GJQsqaUBKTNV-1" vertex="1">
          <mxGeometry x="-130" y="2130" width="160" height="55" as="geometry" />
        </mxCell>
        <mxCell id="dxayiS2_84eYXkXoUzV9-175" value="True" style="text;html=1;align=center;verticalAlign=middle;resizable=0;points=[];autosize=1;strokeColor=none;fillColor=none;" parent="WIyWlLk6GJQsqaUBKTNV-1" vertex="1">
          <mxGeometry x="175" y="2615" width="50" height="30" as="geometry" />
        </mxCell>
        <mxCell id="dxayiS2_84eYXkXoUzV9-176" value="False" style="text;html=1;align=center;verticalAlign=middle;resizable=0;points=[];autosize=1;strokeColor=none;fillColor=none;" parent="WIyWlLk6GJQsqaUBKTNV-1" vertex="1">
          <mxGeometry x="30.000000000000004" y="2520" width="50" height="30" as="geometry" />
        </mxCell>
        <mxCell id="dxayiS2_84eYXkXoUzV9-178" value="End" style="strokeWidth=2;html=1;shape=mxgraph.flowchart.start_1;whiteSpace=wrap;" parent="WIyWlLk6GJQsqaUBKTNV-1" vertex="1">
          <mxGeometry x="129" y="2810" width="100" height="60" as="geometry" />
        </mxCell>
        <mxCell id="-0Tb398mtNT74KdttXuS-28" style="edgeStyle=orthogonalEdgeStyle;rounded=0;orthogonalLoop=1;jettySize=auto;html=1;exitX=1;exitY=0.5;exitDx=0;exitDy=0;entryX=0;entryY=0.5;entryDx=0;entryDy=0;" parent="WIyWlLk6GJQsqaUBKTNV-1" source="-0Tb398mtNT74KdttXuS-1" target="-0Tb398mtNT74KdttXuS-27" edge="1">
          <mxGeometry relative="1" as="geometry" />
        </mxCell>
        <mxCell id="-0Tb398mtNT74KdttXuS-1" value="Utente digita il tipo di funzione da&lt;br&gt;integrare" style="rounded=1;whiteSpace=wrap;html=1;absoluteArcSize=1;arcSize=14;strokeWidth=2;" parent="WIyWlLk6GJQsqaUBKTNV-1" vertex="1">
          <mxGeometry x="190" y="185" width="140" height="50" as="geometry" />
        </mxCell>
        <mxCell id="-0Tb398mtNT74KdttXuS-11" style="edgeStyle=orthogonalEdgeStyle;rounded=0;orthogonalLoop=1;jettySize=auto;html=1;exitX=1;exitY=0.5;exitDx=0;exitDy=0;entryX=0;entryY=0.5;entryDx=0;entryDy=0;" parent="WIyWlLk6GJQsqaUBKTNV-1" source="-0Tb398mtNT74KdttXuS-3" target="-0Tb398mtNT74KdttXuS-9" edge="1">
          <mxGeometry relative="1" as="geometry" />
        </mxCell>
        <mxCell id="-0Tb398mtNT74KdttXuS-3" value="Utente inserisce il valore del primo&lt;br&gt;estremo" style="rounded=1;whiteSpace=wrap;html=1;absoluteArcSize=1;arcSize=14;strokeWidth=2;" parent="WIyWlLk6GJQsqaUBKTNV-1" vertex="1">
          <mxGeometry x="590" y="185" width="170" height="50" as="geometry" />
        </mxCell>
        <mxCell id="-0Tb398mtNT74KdttXuS-25" style="edgeStyle=orthogonalEdgeStyle;rounded=0;orthogonalLoop=1;jettySize=auto;html=1;exitX=0.5;exitY=1;exitDx=0;exitDy=0;entryX=0.5;entryY=0;entryDx=0;entryDy=0;" parent="WIyWlLk6GJQsqaUBKTNV-1" source="-0Tb398mtNT74KdttXuS-4" target="-0Tb398mtNT74KdttXuS-10" edge="1">
          <mxGeometry relative="1" as="geometry" />
        </mxCell>
        <mxCell id="-0Tb398mtNT74KdttXuS-4" value="Utente inserisce il valore del&lt;br&gt;secondo estremo" style="rounded=1;whiteSpace=wrap;html=1;absoluteArcSize=1;arcSize=14;strokeWidth=2;" parent="WIyWlLk6GJQsqaUBKTNV-1" vertex="1">
          <mxGeometry x="980" y="185" width="210" height="50" as="geometry" />
        </mxCell>
        <mxCell id="-0Tb398mtNT74KdttXuS-12" style="edgeStyle=orthogonalEdgeStyle;rounded=0;orthogonalLoop=1;jettySize=auto;html=1;exitX=1;exitY=0.5;exitDx=0;exitDy=0;entryX=0;entryY=0.5;entryDx=0;entryDy=0;" parent="WIyWlLk6GJQsqaUBKTNV-1" source="-0Tb398mtNT74KdttXuS-9" target="-0Tb398mtNT74KdttXuS-4" edge="1">
          <mxGeometry relative="1" as="geometry" />
        </mxCell>
        <mxCell id="-0Tb398mtNT74KdttXuS-9" value="a = primo estremo" style="rounded=1;whiteSpace=wrap;html=1;absoluteArcSize=1;arcSize=14;strokeWidth=2;" parent="WIyWlLk6GJQsqaUBKTNV-1" vertex="1">
          <mxGeometry x="800" y="185" width="140" height="50" as="geometry" />
        </mxCell>
        <mxCell id="-0Tb398mtNT74KdttXuS-26" style="edgeStyle=orthogonalEdgeStyle;rounded=0;orthogonalLoop=1;jettySize=auto;html=1;exitX=0.5;exitY=1;exitDx=0;exitDy=0;entryX=0.5;entryY=0;entryDx=0;entryDy=0;entryPerimeter=0;" parent="WIyWlLk6GJQsqaUBKTNV-1" source="-0Tb398mtNT74KdttXuS-10" target="dxayiS2_84eYXkXoUzV9-34" edge="1">
          <mxGeometry relative="1" as="geometry" />
        </mxCell>
        <mxCell id="-0Tb398mtNT74KdttXuS-10" value="b = secondo estremo" style="rounded=1;whiteSpace=wrap;html=1;absoluteArcSize=1;arcSize=14;strokeWidth=2;" parent="WIyWlLk6GJQsqaUBKTNV-1" vertex="1">
          <mxGeometry x="1015" y="300" width="140" height="50" as="geometry" />
        </mxCell>
        <mxCell id="-0Tb398mtNT74KdttXuS-22" style="edgeStyle=orthogonalEdgeStyle;rounded=0;orthogonalLoop=1;jettySize=auto;html=1;exitX=0;exitY=0.5;exitDx=0;exitDy=0;entryX=1;entryY=0.5;entryDx=0;entryDy=0;" parent="WIyWlLk6GJQsqaUBKTNV-1" source="-0Tb398mtNT74KdttXuS-16" target="-0Tb398mtNT74KdttXuS-21" edge="1">
          <mxGeometry relative="1" as="geometry" />
        </mxCell>
        <mxCell id="-0Tb398mtNT74KdttXuS-16" value="Utente inserisce il valore dell&#39;accuratezza" style="rounded=1;whiteSpace=wrap;html=1;absoluteArcSize=1;arcSize=14;strokeWidth=2;" parent="WIyWlLk6GJQsqaUBKTNV-1" vertex="1">
          <mxGeometry x="450" y="390" width="280" height="60" as="geometry" />
        </mxCell>
        <mxCell id="-0Tb398mtNT74KdttXuS-17" value="False" style="text;html=1;align=center;verticalAlign=middle;resizable=0;points=[];autosize=1;strokeColor=none;fillColor=none;" parent="WIyWlLk6GJQsqaUBKTNV-1" vertex="1">
          <mxGeometry x="970" y="390" width="50" height="30" as="geometry" />
        </mxCell>
        <mxCell id="-0Tb398mtNT74KdttXuS-23" style="edgeStyle=orthogonalEdgeStyle;rounded=0;orthogonalLoop=1;jettySize=auto;html=1;exitX=0.5;exitY=1;exitDx=0;exitDy=0;entryX=0.5;entryY=0;entryDx=0;entryDy=0;entryPerimeter=0;" parent="WIyWlLk6GJQsqaUBKTNV-1" source="-0Tb398mtNT74KdttXuS-21" target="dxayiS2_84eYXkXoUzV9-74" edge="1">
          <mxGeometry relative="1" as="geometry" />
        </mxCell>
        <mxCell id="-0Tb398mtNT74KdttXuS-21" value="acc = valore accuratezza" style="rounded=1;whiteSpace=wrap;html=1;absoluteArcSize=1;arcSize=14;strokeWidth=2;" parent="WIyWlLk6GJQsqaUBKTNV-1" vertex="1">
          <mxGeometry x="85" y="390" width="190" height="60" as="geometry" />
        </mxCell>
        <mxCell id="-0Tb398mtNT74KdttXuS-29" style="edgeStyle=orthogonalEdgeStyle;rounded=0;orthogonalLoop=1;jettySize=auto;html=1;exitX=1;exitY=0.5;exitDx=0;exitDy=0;entryX=0;entryY=0.5;entryDx=0;entryDy=0;" parent="WIyWlLk6GJQsqaUBKTNV-1" source="-0Tb398mtNT74KdttXuS-27" target="-0Tb398mtNT74KdttXuS-3" edge="1">
          <mxGeometry relative="1" as="geometry" />
        </mxCell>
        <mxCell id="-0Tb398mtNT74KdttXuS-27" value="scelta = scelta dell&#39;utente" style="rounded=1;whiteSpace=wrap;html=1;absoluteArcSize=1;arcSize=14;strokeWidth=2;" parent="WIyWlLk6GJQsqaUBKTNV-1" vertex="1">
          <mxGeometry x="395" y="185" width="140" height="50" as="geometry" />
        </mxCell>
        <mxCell id="-0Tb398mtNT74KdttXuS-34" style="edgeStyle=orthogonalEdgeStyle;rounded=0;orthogonalLoop=1;jettySize=auto;html=1;exitX=0.5;exitY=1;exitDx=0;exitDy=0;entryX=0.5;entryY=0;entryDx=0;entryDy=0;" parent="WIyWlLk6GJQsqaUBKTNV-1" source="-0Tb398mtNT74KdttXuS-31" target="-0Tb398mtNT74KdttXuS-33" edge="1">
          <mxGeometry relative="1" as="geometry" />
        </mxCell>
        <mxCell id="-0Tb398mtNT74KdttXuS-31" value="h = (b-a) / n" style="rounded=1;whiteSpace=wrap;html=1;absoluteArcSize=1;arcSize=14;strokeWidth=2;" parent="WIyWlLk6GJQsqaUBKTNV-1" vertex="1">
          <mxGeometry x="1330" y="730" width="154.25" height="55" as="geometry" />
        </mxCell>
        <mxCell id="-0Tb398mtNT74KdttXuS-51" style="edgeStyle=orthogonalEdgeStyle;rounded=0;orthogonalLoop=1;jettySize=auto;html=1;exitX=0.5;exitY=1;exitDx=0;exitDy=0;exitPerimeter=0;entryX=0.5;entryY=0;entryDx=0;entryDy=0;" parent="WIyWlLk6GJQsqaUBKTNV-1" source="-0Tb398mtNT74KdttXuS-32" target="-0Tb398mtNT74KdttXuS-48" edge="1">
          <mxGeometry relative="1" as="geometry" />
        </mxCell>
        <mxCell id="-0Tb398mtNT74KdttXuS-111" style="edgeStyle=orthogonalEdgeStyle;rounded=0;orthogonalLoop=1;jettySize=auto;html=1;exitX=0;exitY=0.5;exitDx=0;exitDy=0;exitPerimeter=0;entryX=0;entryY=0.5;entryDx=0;entryDy=0;" parent="WIyWlLk6GJQsqaUBKTNV-1" source="-0Tb398mtNT74KdttXuS-32" target="-0Tb398mtNT74KdttXuS-45" edge="1">
          <mxGeometry relative="1" as="geometry">
            <Array as="points">
              <mxPoint x="1200" y="980" />
              <mxPoint x="1200" y="1460" />
            </Array>
          </mxGeometry>
        </mxCell>
        <mxCell id="-0Tb398mtNT74KdttXuS-32" value="i è minore di n?" style="strokeWidth=2;html=1;shape=mxgraph.flowchart.decision;whiteSpace=wrap;" parent="WIyWlLk6GJQsqaUBKTNV-1" vertex="1">
          <mxGeometry x="1338.19" y="945" width="137.87" height="70" as="geometry" />
        </mxCell>
        <mxCell id="-0Tb398mtNT74KdttXuS-35" style="edgeStyle=orthogonalEdgeStyle;rounded=0;orthogonalLoop=1;jettySize=auto;html=1;exitX=0.5;exitY=1;exitDx=0;exitDy=0;" parent="WIyWlLk6GJQsqaUBKTNV-1" source="-0Tb398mtNT74KdttXuS-33" target="-0Tb398mtNT74KdttXuS-32" edge="1">
          <mxGeometry relative="1" as="geometry" />
        </mxCell>
        <mxCell id="-0Tb398mtNT74KdttXuS-33" value="i = 0" style="rounded=1;whiteSpace=wrap;html=1;absoluteArcSize=1;arcSize=14;strokeWidth=2;" parent="WIyWlLk6GJQsqaUBKTNV-1" vertex="1">
          <mxGeometry x="1330" y="830" width="154.25" height="55" as="geometry" />
        </mxCell>
        <mxCell id="-0Tb398mtNT74KdttXuS-40" style="edgeStyle=orthogonalEdgeStyle;rounded=0;orthogonalLoop=1;jettySize=auto;html=1;exitX=0.5;exitY=1;exitDx=0;exitDy=0;entryX=0.5;entryY=0;entryDx=0;entryDy=0;" parent="WIyWlLk6GJQsqaUBKTNV-1" source="-0Tb398mtNT74KdttXuS-36" target="-0Tb398mtNT74KdttXuS-37" edge="1">
          <mxGeometry relative="1" as="geometry" />
        </mxCell>
        <mxCell id="-0Tb398mtNT74KdttXuS-36" value="x_i = a+i*h" style="rounded=1;whiteSpace=wrap;html=1;absoluteArcSize=1;arcSize=14;strokeWidth=2;" parent="WIyWlLk6GJQsqaUBKTNV-1" vertex="1">
          <mxGeometry x="1330" y="1145" width="154.25" height="55" as="geometry" />
        </mxCell>
        <mxCell id="-0Tb398mtNT74KdttXuS-41" style="edgeStyle=orthogonalEdgeStyle;rounded=0;orthogonalLoop=1;jettySize=auto;html=1;exitX=0.5;exitY=1;exitDx=0;exitDy=0;entryX=0.5;entryY=0;entryDx=0;entryDy=0;" parent="WIyWlLk6GJQsqaUBKTNV-1" source="-0Tb398mtNT74KdttXuS-37" target="-0Tb398mtNT74KdttXuS-38" edge="1">
          <mxGeometry relative="1" as="geometry" />
        </mxCell>
        <mxCell id="-0Tb398mtNT74KdttXuS-37" value="x_i1 = x_i+h" style="rounded=1;whiteSpace=wrap;html=1;absoluteArcSize=1;arcSize=14;strokeWidth=2;" parent="WIyWlLk6GJQsqaUBKTNV-1" vertex="1">
          <mxGeometry x="1330" y="1250" width="154.25" height="55" as="geometry" />
        </mxCell>
        <mxCell id="-0Tb398mtNT74KdttXuS-52" style="edgeStyle=orthogonalEdgeStyle;rounded=0;orthogonalLoop=1;jettySize=auto;html=1;exitX=1;exitY=0.5;exitDx=0;exitDy=0;entryX=1;entryY=0.5;entryDx=0;entryDy=0;entryPerimeter=0;" parent="WIyWlLk6GJQsqaUBKTNV-1" source="-0Tb398mtNT74KdttXuS-38" target="-0Tb398mtNT74KdttXuS-32" edge="1">
          <mxGeometry relative="1" as="geometry">
            <Array as="points">
              <mxPoint x="1600" y="1377" />
              <mxPoint x="1600" y="980" />
            </Array>
          </mxGeometry>
        </mxCell>
        <mxCell id="-0Tb398mtNT74KdttXuS-38" value="somma = somma + funzione((x_i + x_i1) / 2)" style="rounded=1;whiteSpace=wrap;html=1;absoluteArcSize=1;arcSize=14;strokeWidth=2;" parent="WIyWlLk6GJQsqaUBKTNV-1" vertex="1">
          <mxGeometry x="1330" y="1350" width="154.25" height="55" as="geometry" />
        </mxCell>
        <mxCell id="-0Tb398mtNT74KdttXuS-43" value="True" style="text;html=1;align=center;verticalAlign=middle;resizable=0;points=[];autosize=1;strokeColor=none;fillColor=none;" parent="WIyWlLk6GJQsqaUBKTNV-1" vertex="1">
          <mxGeometry x="1400" y="1015" width="50" height="30" as="geometry" />
        </mxCell>
        <mxCell id="-0Tb398mtNT74KdttXuS-113" style="edgeStyle=orthogonalEdgeStyle;rounded=0;orthogonalLoop=1;jettySize=auto;html=1;exitX=0.5;exitY=1;exitDx=0;exitDy=0;entryX=0.5;entryY=0;entryDx=0;entryDy=0;entryPerimeter=0;" parent="WIyWlLk6GJQsqaUBKTNV-1" source="-0Tb398mtNT74KdttXuS-45" target="-0Tb398mtNT74KdttXuS-112" edge="1">
          <mxGeometry relative="1" as="geometry" />
        </mxCell>
        <mxCell id="-0Tb398mtNT74KdttXuS-45" value="somma = somma * h" style="rounded=1;whiteSpace=wrap;html=1;absoluteArcSize=1;arcSize=14;strokeWidth=2;" parent="WIyWlLk6GJQsqaUBKTNV-1" vertex="1">
          <mxGeometry x="1330" y="1432.5" width="154.25" height="55" as="geometry" />
        </mxCell>
        <mxCell id="-0Tb398mtNT74KdttXuS-47" value="False" style="text;html=1;align=center;verticalAlign=middle;resizable=0;points=[];autosize=1;strokeColor=none;fillColor=none;" parent="WIyWlLk6GJQsqaUBKTNV-1" vertex="1">
          <mxGeometry x="1288.19" y="985" width="50" height="30" as="geometry" />
        </mxCell>
        <mxCell id="-0Tb398mtNT74KdttXuS-49" style="edgeStyle=orthogonalEdgeStyle;rounded=0;orthogonalLoop=1;jettySize=auto;html=1;exitX=0.5;exitY=1;exitDx=0;exitDy=0;entryX=0.5;entryY=0;entryDx=0;entryDy=0;" parent="WIyWlLk6GJQsqaUBKTNV-1" source="-0Tb398mtNT74KdttXuS-48" target="-0Tb398mtNT74KdttXuS-36" edge="1">
          <mxGeometry relative="1" as="geometry" />
        </mxCell>
        <mxCell id="-0Tb398mtNT74KdttXuS-48" value="i = i+1" style="rounded=1;whiteSpace=wrap;html=1;absoluteArcSize=1;arcSize=14;strokeWidth=2;" parent="WIyWlLk6GJQsqaUBKTNV-1" vertex="1">
          <mxGeometry x="1330" y="1052.5" width="154.25" height="55" as="geometry" />
        </mxCell>
        <mxCell id="-0Tb398mtNT74KdttXuS-106" style="edgeStyle=orthogonalEdgeStyle;rounded=0;orthogonalLoop=1;jettySize=auto;html=1;exitX=0.5;exitY=1;exitDx=0;exitDy=0;exitPerimeter=0;entryX=0.5;entryY=0;entryDx=0;entryDy=0;" parent="WIyWlLk6GJQsqaUBKTNV-1" source="-0Tb398mtNT74KdttXuS-65" target="-0Tb398mtNT74KdttXuS-105" edge="1">
          <mxGeometry relative="1" as="geometry" />
        </mxCell>
        <mxCell id="-0Tb398mtNT74KdttXuS-65" value="punto_medio" style="strokeWidth=2;html=1;shape=mxgraph.flowchart.start_1;whiteSpace=wrap;" parent="WIyWlLk6GJQsqaUBKTNV-1" vertex="1">
          <mxGeometry x="1317.13" y="555" width="180" height="60" as="geometry" />
        </mxCell>
        <mxCell id="-0Tb398mtNT74KdttXuS-67" style="edgeStyle=orthogonalEdgeStyle;rounded=0;orthogonalLoop=1;jettySize=auto;html=1;exitX=0.5;exitY=1;exitDx=0;exitDy=0;entryX=0.5;entryY=0;entryDx=0;entryDy=0;" parent="WIyWlLk6GJQsqaUBKTNV-1" source="-0Tb398mtNT74KdttXuS-68" target="-0Tb398mtNT74KdttXuS-73" edge="1">
          <mxGeometry relative="1" as="geometry" />
        </mxCell>
        <mxCell id="-0Tb398mtNT74KdttXuS-68" value="h = (b-a) / m" style="rounded=1;whiteSpace=wrap;html=1;absoluteArcSize=1;arcSize=14;strokeWidth=2;" parent="WIyWlLk6GJQsqaUBKTNV-1" vertex="1">
          <mxGeometry x="1330" y="1860" width="154.25" height="55" as="geometry" />
        </mxCell>
        <mxCell id="-0Tb398mtNT74KdttXuS-70" style="edgeStyle=orthogonalEdgeStyle;rounded=0;orthogonalLoop=1;jettySize=auto;html=1;exitX=0.5;exitY=1;exitDx=0;exitDy=0;exitPerimeter=0;entryX=0.5;entryY=0;entryDx=0;entryDy=0;" parent="WIyWlLk6GJQsqaUBKTNV-1" source="-0Tb398mtNT74KdttXuS-71" target="-0Tb398mtNT74KdttXuS-84" edge="1">
          <mxGeometry relative="1" as="geometry" />
        </mxCell>
        <mxCell id="-0Tb398mtNT74KdttXuS-103" style="edgeStyle=orthogonalEdgeStyle;rounded=0;orthogonalLoop=1;jettySize=auto;html=1;exitX=0;exitY=0.5;exitDx=0;exitDy=0;exitPerimeter=0;entryX=0;entryY=0.5;entryDx=0;entryDy=0;" parent="WIyWlLk6GJQsqaUBKTNV-1" source="-0Tb398mtNT74KdttXuS-71" target="-0Tb398mtNT74KdttXuS-81" edge="1">
          <mxGeometry relative="1" as="geometry">
            <Array as="points">
              <mxPoint x="1100" y="2110" />
              <mxPoint x="1100" y="2827" />
            </Array>
          </mxGeometry>
        </mxCell>
        <mxCell id="-0Tb398mtNT74KdttXuS-71" value="i è minore di m?" style="strokeWidth=2;html=1;shape=mxgraph.flowchart.decision;whiteSpace=wrap;" parent="WIyWlLk6GJQsqaUBKTNV-1" vertex="1">
          <mxGeometry x="1338.19" y="2075" width="137.87" height="70" as="geometry" />
        </mxCell>
        <mxCell id="-0Tb398mtNT74KdttXuS-72" style="edgeStyle=orthogonalEdgeStyle;rounded=0;orthogonalLoop=1;jettySize=auto;html=1;exitX=0.5;exitY=1;exitDx=0;exitDy=0;" parent="WIyWlLk6GJQsqaUBKTNV-1" source="-0Tb398mtNT74KdttXuS-73" target="-0Tb398mtNT74KdttXuS-71" edge="1">
          <mxGeometry relative="1" as="geometry" />
        </mxCell>
        <mxCell id="-0Tb398mtNT74KdttXuS-73" value="i = 0" style="rounded=1;whiteSpace=wrap;html=1;absoluteArcSize=1;arcSize=14;strokeWidth=2;" parent="WIyWlLk6GJQsqaUBKTNV-1" vertex="1">
          <mxGeometry x="1330" y="1960" width="154.25" height="55" as="geometry" />
        </mxCell>
        <mxCell id="-0Tb398mtNT74KdttXuS-104" style="edgeStyle=orthogonalEdgeStyle;rounded=0;orthogonalLoop=1;jettySize=auto;html=1;exitX=0.5;exitY=1;exitDx=0;exitDy=0;entryX=0.5;entryY=0;entryDx=0;entryDy=0;entryPerimeter=0;" parent="WIyWlLk6GJQsqaUBKTNV-1" source="-0Tb398mtNT74KdttXuS-75" target="-0Tb398mtNT74KdttXuS-87" edge="1">
          <mxGeometry relative="1" as="geometry" />
        </mxCell>
        <mxCell id="-0Tb398mtNT74KdttXuS-75" value="x_i = a+i*h" style="rounded=1;whiteSpace=wrap;html=1;absoluteArcSize=1;arcSize=14;strokeWidth=2;" parent="WIyWlLk6GJQsqaUBKTNV-1" vertex="1">
          <mxGeometry x="1330" y="2275" width="154.25" height="55" as="geometry" />
        </mxCell>
        <mxCell id="-0Tb398mtNT74KdttXuS-80" value="True" style="text;html=1;align=center;verticalAlign=middle;resizable=0;points=[];autosize=1;strokeColor=none;fillColor=none;" parent="WIyWlLk6GJQsqaUBKTNV-1" vertex="1">
          <mxGeometry x="1400" y="2145" width="50" height="30" as="geometry" />
        </mxCell>
        <mxCell id="-0Tb398mtNT74KdttXuS-115" style="edgeStyle=orthogonalEdgeStyle;rounded=0;orthogonalLoop=1;jettySize=auto;html=1;exitX=0.5;exitY=1;exitDx=0;exitDy=0;entryX=0.5;entryY=0;entryDx=0;entryDy=0;entryPerimeter=0;" parent="WIyWlLk6GJQsqaUBKTNV-1" source="-0Tb398mtNT74KdttXuS-81" target="-0Tb398mtNT74KdttXuS-114" edge="1">
          <mxGeometry relative="1" as="geometry" />
        </mxCell>
        <mxCell id="-0Tb398mtNT74KdttXuS-81" value="somma = somma * h/3" style="rounded=1;whiteSpace=wrap;html=1;absoluteArcSize=1;arcSize=14;strokeWidth=2;" parent="WIyWlLk6GJQsqaUBKTNV-1" vertex="1">
          <mxGeometry x="1317.13" y="2800" width="154.25" height="55" as="geometry" />
        </mxCell>
        <mxCell id="-0Tb398mtNT74KdttXuS-82" value="False" style="text;html=1;align=center;verticalAlign=middle;resizable=0;points=[];autosize=1;strokeColor=none;fillColor=none;" parent="WIyWlLk6GJQsqaUBKTNV-1" vertex="1">
          <mxGeometry x="1288.19" y="2115" width="50" height="30" as="geometry" />
        </mxCell>
        <mxCell id="-0Tb398mtNT74KdttXuS-83" style="edgeStyle=orthogonalEdgeStyle;rounded=0;orthogonalLoop=1;jettySize=auto;html=1;exitX=0.5;exitY=1;exitDx=0;exitDy=0;entryX=0.5;entryY=0;entryDx=0;entryDy=0;" parent="WIyWlLk6GJQsqaUBKTNV-1" source="-0Tb398mtNT74KdttXuS-84" target="-0Tb398mtNT74KdttXuS-75" edge="1">
          <mxGeometry relative="1" as="geometry" />
        </mxCell>
        <mxCell id="-0Tb398mtNT74KdttXuS-84" value="i = i+1" style="rounded=1;whiteSpace=wrap;html=1;absoluteArcSize=1;arcSize=14;strokeWidth=2;" parent="WIyWlLk6GJQsqaUBKTNV-1" vertex="1">
          <mxGeometry x="1330" y="2182.5" width="154.25" height="55" as="geometry" />
        </mxCell>
        <mxCell id="-0Tb398mtNT74KdttXuS-109" style="edgeStyle=orthogonalEdgeStyle;rounded=0;orthogonalLoop=1;jettySize=auto;html=1;exitX=0.5;exitY=1;exitDx=0;exitDy=0;exitPerimeter=0;entryX=0.5;entryY=0;entryDx=0;entryDy=0;" parent="WIyWlLk6GJQsqaUBKTNV-1" source="-0Tb398mtNT74KdttXuS-86" target="-0Tb398mtNT74KdttXuS-108" edge="1">
          <mxGeometry relative="1" as="geometry" />
        </mxCell>
        <mxCell id="-0Tb398mtNT74KdttXuS-86" value="Cavalieri_Simpson" style="strokeWidth=2;html=1;shape=mxgraph.flowchart.start_1;whiteSpace=wrap;" parent="WIyWlLk6GJQsqaUBKTNV-1" vertex="1">
          <mxGeometry x="1317.13" y="1680" width="180" height="60" as="geometry" />
        </mxCell>
        <mxCell id="-0Tb398mtNT74KdttXuS-89" style="edgeStyle=orthogonalEdgeStyle;rounded=0;orthogonalLoop=1;jettySize=auto;html=1;exitX=0;exitY=0.5;exitDx=0;exitDy=0;exitPerimeter=0;" parent="WIyWlLk6GJQsqaUBKTNV-1" source="-0Tb398mtNT74KdttXuS-87" target="-0Tb398mtNT74KdttXuS-88" edge="1">
          <mxGeometry relative="1" as="geometry" />
        </mxCell>
        <mxCell id="-0Tb398mtNT74KdttXuS-92" style="edgeStyle=orthogonalEdgeStyle;rounded=0;orthogonalLoop=1;jettySize=auto;html=1;exitX=1;exitY=0.5;exitDx=0;exitDy=0;exitPerimeter=0;entryX=0.5;entryY=0;entryDx=0;entryDy=0;entryPerimeter=0;" parent="WIyWlLk6GJQsqaUBKTNV-1" source="-0Tb398mtNT74KdttXuS-87" target="-0Tb398mtNT74KdttXuS-91" edge="1">
          <mxGeometry relative="1" as="geometry" />
        </mxCell>
        <mxCell id="-0Tb398mtNT74KdttXuS-134" value="False" style="edgeLabel;html=1;align=center;verticalAlign=middle;resizable=0;points=[];" parent="-0Tb398mtNT74KdttXuS-92" vertex="1" connectable="0">
          <mxGeometry x="-0.6215" y="-4" relative="1" as="geometry">
            <mxPoint x="-11" y="-11" as="offset" />
          </mxGeometry>
        </mxCell>
        <mxCell id="-0Tb398mtNT74KdttXuS-87" value="i == 0 OR i == m ?" style="strokeWidth=2;html=1;shape=mxgraph.flowchart.decision;whiteSpace=wrap;" parent="WIyWlLk6GJQsqaUBKTNV-1" vertex="1">
          <mxGeometry x="1338.19" y="2377.5" width="137.87" height="70" as="geometry" />
        </mxCell>
        <mxCell id="-0Tb398mtNT74KdttXuS-99" style="edgeStyle=orthogonalEdgeStyle;rounded=0;orthogonalLoop=1;jettySize=auto;html=1;exitX=0.5;exitY=1;exitDx=0;exitDy=0;entryX=1;entryY=0.5;entryDx=0;entryDy=0;entryPerimeter=0;" parent="WIyWlLk6GJQsqaUBKTNV-1" source="-0Tb398mtNT74KdttXuS-88" target="-0Tb398mtNT74KdttXuS-71" edge="1">
          <mxGeometry relative="1" as="geometry">
            <Array as="points">
              <mxPoint x="1307" y="2760" />
              <mxPoint x="2000" y="2760" />
              <mxPoint x="2000" y="2110" />
            </Array>
          </mxGeometry>
        </mxCell>
        <mxCell id="-0Tb398mtNT74KdttXuS-88" value="somma = somma + funzione(x_i)" style="rounded=1;whiteSpace=wrap;html=1;absoluteArcSize=1;arcSize=14;strokeWidth=2;" parent="WIyWlLk6GJQsqaUBKTNV-1" vertex="1">
          <mxGeometry x="1230" y="2480" width="154.25" height="55" as="geometry" />
        </mxCell>
        <mxCell id="-0Tb398mtNT74KdttXuS-90" value="True" style="text;html=1;align=center;verticalAlign=middle;resizable=0;points=[];autosize=1;strokeColor=none;fillColor=none;" parent="WIyWlLk6GJQsqaUBKTNV-1" vertex="1">
          <mxGeometry x="1260" y="2420" width="50" height="30" as="geometry" />
        </mxCell>
        <mxCell id="-0Tb398mtNT74KdttXuS-95" style="edgeStyle=orthogonalEdgeStyle;rounded=0;orthogonalLoop=1;jettySize=auto;html=1;exitX=1;exitY=0.5;exitDx=0;exitDy=0;exitPerimeter=0;entryX=0.5;entryY=0;entryDx=0;entryDy=0;" parent="WIyWlLk6GJQsqaUBKTNV-1" source="-0Tb398mtNT74KdttXuS-91" target="-0Tb398mtNT74KdttXuS-94" edge="1">
          <mxGeometry relative="1" as="geometry" />
        </mxCell>
        <mxCell id="-0Tb398mtNT74KdttXuS-96" style="edgeStyle=orthogonalEdgeStyle;rounded=0;orthogonalLoop=1;jettySize=auto;html=1;exitX=0;exitY=0.5;exitDx=0;exitDy=0;exitPerimeter=0;entryX=0.5;entryY=0;entryDx=0;entryDy=0;" parent="WIyWlLk6GJQsqaUBKTNV-1" source="-0Tb398mtNT74KdttXuS-91" target="-0Tb398mtNT74KdttXuS-93" edge="1">
          <mxGeometry relative="1" as="geometry" />
        </mxCell>
        <mxCell id="-0Tb398mtNT74KdttXuS-91" value="i è pari?" style="strokeWidth=2;html=1;shape=mxgraph.flowchart.decision;whiteSpace=wrap;" parent="WIyWlLk6GJQsqaUBKTNV-1" vertex="1">
          <mxGeometry x="1516" y="2472.5" width="137.87" height="70" as="geometry" />
        </mxCell>
        <mxCell id="-0Tb398mtNT74KdttXuS-102" style="edgeStyle=orthogonalEdgeStyle;rounded=0;orthogonalLoop=1;jettySize=auto;html=1;exitX=0.5;exitY=1;exitDx=0;exitDy=0;entryX=1;entryY=0.5;entryDx=0;entryDy=0;entryPerimeter=0;" parent="WIyWlLk6GJQsqaUBKTNV-1" source="-0Tb398mtNT74KdttXuS-93" target="-0Tb398mtNT74KdttXuS-71" edge="1">
          <mxGeometry relative="1" as="geometry">
            <Array as="points">
              <mxPoint x="1467" y="2760" />
              <mxPoint x="2000" y="2760" />
              <mxPoint x="2000" y="2110" />
            </Array>
          </mxGeometry>
        </mxCell>
        <mxCell id="-0Tb398mtNT74KdttXuS-93" value="somma = somma + 2*funzione(x_i)" style="rounded=1;whiteSpace=wrap;html=1;absoluteArcSize=1;arcSize=14;strokeWidth=2;" parent="WIyWlLk6GJQsqaUBKTNV-1" vertex="1">
          <mxGeometry x="1390" y="2580" width="154.25" height="55" as="geometry" />
        </mxCell>
        <mxCell id="-0Tb398mtNT74KdttXuS-101" style="edgeStyle=orthogonalEdgeStyle;rounded=0;orthogonalLoop=1;jettySize=auto;html=1;exitX=0.5;exitY=1;exitDx=0;exitDy=0;entryX=1;entryY=0.5;entryDx=0;entryDy=0;entryPerimeter=0;" parent="WIyWlLk6GJQsqaUBKTNV-1" source="-0Tb398mtNT74KdttXuS-94" target="-0Tb398mtNT74KdttXuS-71" edge="1">
          <mxGeometry relative="1" as="geometry">
            <Array as="points">
              <mxPoint x="1731" y="2760" />
              <mxPoint x="2000" y="2760" />
              <mxPoint x="2000" y="2110" />
            </Array>
          </mxGeometry>
        </mxCell>
        <mxCell id="-0Tb398mtNT74KdttXuS-94" value="somma = somma + 4*funzione(x_i)" style="rounded=1;whiteSpace=wrap;html=1;absoluteArcSize=1;arcSize=14;strokeWidth=2;" parent="WIyWlLk6GJQsqaUBKTNV-1" vertex="1">
          <mxGeometry x="1653.87" y="2580" width="154.25" height="55" as="geometry" />
        </mxCell>
        <mxCell id="-0Tb398mtNT74KdttXuS-97" value="True" style="text;html=1;align=center;verticalAlign=middle;resizable=0;points=[];autosize=1;strokeColor=none;fillColor=none;" parent="WIyWlLk6GJQsqaUBKTNV-1" vertex="1">
          <mxGeometry x="1465" y="2475" width="50" height="30" as="geometry" />
        </mxCell>
        <mxCell id="-0Tb398mtNT74KdttXuS-98" value="False" style="text;html=1;align=center;verticalAlign=middle;resizable=0;points=[];autosize=1;strokeColor=none;fillColor=none;" parent="WIyWlLk6GJQsqaUBKTNV-1" vertex="1">
          <mxGeometry x="1660" y="2475" width="50" height="30" as="geometry" />
        </mxCell>
        <mxCell id="-0Tb398mtNT74KdttXuS-107" style="edgeStyle=orthogonalEdgeStyle;rounded=0;orthogonalLoop=1;jettySize=auto;html=1;exitX=0.5;exitY=1;exitDx=0;exitDy=0;entryX=0.5;entryY=0;entryDx=0;entryDy=0;" parent="WIyWlLk6GJQsqaUBKTNV-1" source="-0Tb398mtNT74KdttXuS-105" target="-0Tb398mtNT74KdttXuS-31" edge="1">
          <mxGeometry relative="1" as="geometry" />
        </mxCell>
        <mxCell id="-0Tb398mtNT74KdttXuS-105" value="somma = 0." style="rounded=1;whiteSpace=wrap;html=1;absoluteArcSize=1;arcSize=14;strokeWidth=2;" parent="WIyWlLk6GJQsqaUBKTNV-1" vertex="1">
          <mxGeometry x="1330" y="640" width="154.25" height="55" as="geometry" />
        </mxCell>
        <mxCell id="-0Tb398mtNT74KdttXuS-110" style="edgeStyle=orthogonalEdgeStyle;rounded=0;orthogonalLoop=1;jettySize=auto;html=1;exitX=0.5;exitY=1;exitDx=0;exitDy=0;entryX=0.5;entryY=0;entryDx=0;entryDy=0;" parent="WIyWlLk6GJQsqaUBKTNV-1" source="-0Tb398mtNT74KdttXuS-108" target="-0Tb398mtNT74KdttXuS-68" edge="1">
          <mxGeometry relative="1" as="geometry" />
        </mxCell>
        <mxCell id="-0Tb398mtNT74KdttXuS-108" value="somma = 0." style="rounded=1;whiteSpace=wrap;html=1;absoluteArcSize=1;arcSize=14;strokeWidth=2;" parent="WIyWlLk6GJQsqaUBKTNV-1" vertex="1">
          <mxGeometry x="1330" y="1770" width="154.25" height="55" as="geometry" />
        </mxCell>
        <mxCell id="-0Tb398mtNT74KdttXuS-112" value="ritorno somma" style="strokeWidth=2;html=1;shape=mxgraph.flowchart.start_1;whiteSpace=wrap;" parent="WIyWlLk6GJQsqaUBKTNV-1" vertex="1">
          <mxGeometry x="1357.13" y="1520" width="100" height="60" as="geometry" />
        </mxCell>
        <mxCell id="-0Tb398mtNT74KdttXuS-114" value="ritorno somma" style="strokeWidth=2;html=1;shape=mxgraph.flowchart.start_1;whiteSpace=wrap;" parent="WIyWlLk6GJQsqaUBKTNV-1" vertex="1">
          <mxGeometry x="1344.2600000000002" y="2900" width="100" height="60" as="geometry" />
        </mxCell>
        <mxCell id="-0Tb398mtNT74KdttXuS-116" value="True" style="text;html=1;align=center;verticalAlign=middle;resizable=0;points=[];autosize=1;strokeColor=none;fillColor=none;" parent="WIyWlLk6GJQsqaUBKTNV-1" vertex="1">
          <mxGeometry x="255" y="875" width="50" height="30" as="geometry" />
        </mxCell>
        <mxCell id="-0Tb398mtNT74KdttXuS-117" value="True" style="text;html=1;align=center;verticalAlign=middle;resizable=0;points=[];autosize=1;strokeColor=none;fillColor=none;" parent="WIyWlLk6GJQsqaUBKTNV-1" vertex="1">
          <mxGeometry x="250" y="970" width="50" height="30" as="geometry" />
        </mxCell>
        <mxCell id="-0Tb398mtNT74KdttXuS-118" value="True" style="text;html=1;align=center;verticalAlign=middle;resizable=0;points=[];autosize=1;strokeColor=none;fillColor=none;" parent="WIyWlLk6GJQsqaUBKTNV-1" vertex="1">
          <mxGeometry x="250" y="1080" width="50" height="30" as="geometry" />
        </mxCell>
        <mxCell id="-0Tb398mtNT74KdttXuS-119" value="True" style="text;html=1;align=center;verticalAlign=middle;resizable=0;points=[];autosize=1;strokeColor=none;fillColor=none;" parent="WIyWlLk6GJQsqaUBKTNV-1" vertex="1">
          <mxGeometry x="250" y="1180" width="50" height="30" as="geometry" />
        </mxCell>
        <mxCell id="-0Tb398mtNT74KdttXuS-120" value="True" style="text;html=1;align=center;verticalAlign=middle;resizable=0;points=[];autosize=1;strokeColor=none;fillColor=none;" parent="WIyWlLk6GJQsqaUBKTNV-1" vertex="1">
          <mxGeometry x="250" y="1287.5" width="50" height="30" as="geometry" />
        </mxCell>
        <mxCell id="-0Tb398mtNT74KdttXuS-121" value="False" style="text;html=1;align=center;verticalAlign=middle;resizable=0;points=[];autosize=1;strokeColor=none;fillColor=none;" parent="WIyWlLk6GJQsqaUBKTNV-1" vertex="1">
          <mxGeometry x="179" y="940" width="50" height="30" as="geometry" />
        </mxCell>
        <mxCell id="-0Tb398mtNT74KdttXuS-122" value="False" style="text;html=1;align=center;verticalAlign=middle;resizable=0;points=[];autosize=1;strokeColor=none;fillColor=none;" parent="WIyWlLk6GJQsqaUBKTNV-1" vertex="1">
          <mxGeometry x="179" y="2030" width="50" height="30" as="geometry" />
        </mxCell>
        <mxCell id="-0Tb398mtNT74KdttXuS-123" value="False" style="text;html=1;align=center;verticalAlign=middle;resizable=0;points=[];autosize=1;strokeColor=none;fillColor=none;" parent="WIyWlLk6GJQsqaUBKTNV-1" vertex="1">
          <mxGeometry x="179" y="1045" width="50" height="30" as="geometry" />
        </mxCell>
        <mxCell id="-0Tb398mtNT74KdttXuS-124" value="False" style="text;html=1;align=center;verticalAlign=middle;resizable=0;points=[];autosize=1;strokeColor=none;fillColor=none;" parent="WIyWlLk6GJQsqaUBKTNV-1" vertex="1">
          <mxGeometry x="180" y="1150" width="50" height="30" as="geometry" />
        </mxCell>
        <mxCell id="-0Tb398mtNT74KdttXuS-125" value="False" style="text;html=1;align=center;verticalAlign=middle;resizable=0;points=[];autosize=1;strokeColor=none;fillColor=none;" parent="WIyWlLk6GJQsqaUBKTNV-1" vertex="1">
          <mxGeometry x="180" y="1250" width="50" height="30" as="geometry" />
        </mxCell>
        <mxCell id="-0Tb398mtNT74KdttXuS-126" value="True" style="text;html=1;align=center;verticalAlign=middle;resizable=0;points=[];autosize=1;strokeColor=none;fillColor=none;" parent="WIyWlLk6GJQsqaUBKTNV-1" vertex="1">
          <mxGeometry x="250" y="1967.5" width="50" height="30" as="geometry" />
        </mxCell>
        <mxCell id="-0Tb398mtNT74KdttXuS-127" value="True" style="text;html=1;align=center;verticalAlign=middle;resizable=0;points=[];autosize=1;strokeColor=none;fillColor=none;" parent="WIyWlLk6GJQsqaUBKTNV-1" vertex="1">
          <mxGeometry x="250" y="2067.5" width="50" height="30" as="geometry" />
        </mxCell>
        <mxCell id="-0Tb398mtNT74KdttXuS-128" value="True" style="text;html=1;align=center;verticalAlign=middle;resizable=0;points=[];autosize=1;strokeColor=none;fillColor=none;" parent="WIyWlLk6GJQsqaUBKTNV-1" vertex="1">
          <mxGeometry x="250" y="2175" width="50" height="30" as="geometry" />
        </mxCell>
        <mxCell id="-0Tb398mtNT74KdttXuS-129" value="True" style="text;html=1;align=center;verticalAlign=middle;resizable=0;points=[];autosize=1;strokeColor=none;fillColor=none;" parent="WIyWlLk6GJQsqaUBKTNV-1" vertex="1">
          <mxGeometry x="250" y="2270" width="50" height="30" as="geometry" />
        </mxCell>
        <mxCell id="-0Tb398mtNT74KdttXuS-130" value="True" style="text;html=1;align=center;verticalAlign=middle;resizable=0;points=[];autosize=1;strokeColor=none;fillColor=none;" parent="WIyWlLk6GJQsqaUBKTNV-1" vertex="1">
          <mxGeometry x="250" y="2377.5" width="50" height="30" as="geometry" />
        </mxCell>
        <mxCell id="-0Tb398mtNT74KdttXuS-131" value="False" style="text;html=1;align=center;verticalAlign=middle;resizable=0;points=[];autosize=1;strokeColor=none;fillColor=none;" parent="WIyWlLk6GJQsqaUBKTNV-1" vertex="1">
          <mxGeometry x="180" y="2140" width="50" height="30" as="geometry" />
        </mxCell>
        <mxCell id="-0Tb398mtNT74KdttXuS-132" value="False" style="text;html=1;align=center;verticalAlign=middle;resizable=0;points=[];autosize=1;strokeColor=none;fillColor=none;" parent="WIyWlLk6GJQsqaUBKTNV-1" vertex="1">
          <mxGeometry x="180" y="2240" width="50" height="30" as="geometry" />
        </mxCell>
        <mxCell id="-0Tb398mtNT74KdttXuS-133" value="False" style="text;html=1;align=center;verticalAlign=middle;resizable=0;points=[];autosize=1;strokeColor=none;fillColor=none;" parent="WIyWlLk6GJQsqaUBKTNV-1" vertex="1">
          <mxGeometry x="180" y="2338" width="50" height="30" as="geometry" />
        </mxCell>
        <mxCell id="Mil7X2L2uE1XehQc7Dlf-2" value="&lt;div align=&quot;left&quot;&gt;i2n = punto_medio(funzione&amp;nbsp;&lt;/div&gt;&lt;div style=&quot;font-size: 13px;&quot; align=&quot;left&quot;&gt;&lt;font style=&quot;font-size: 12px;&quot;&gt;coseno, a, b, 2n)&lt;/font&gt;&lt;/div&gt;" style="html=1;shadow=0;dashed=0;align=left;verticalAlign=middle;shape=mxgraph.arrows2.calloutArrow;dy=10;dx=20;notch=151;arrowHead=20;" vertex="1" parent="WIyWlLk6GJQsqaUBKTNV-1">
          <mxGeometry x="627" y="875" width="200" height="60" as="geometry" />
        </mxCell>
        <mxCell id="Mil7X2L2uE1XehQc7Dlf-3" value="&lt;div align=&quot;left&quot;&gt;in = punto_medio(funzione&amp;nbsp;&lt;/div&gt;&lt;div align=&quot;left&quot;&gt;seno, a, b, n)&lt;/div&gt;" style="html=1;shadow=0;dashed=0;align=left;verticalAlign=middle;shape=mxgraph.arrows2.calloutArrow;dy=10;dx=20;notch=151;arrowHead=20;" vertex="1" parent="WIyWlLk6GJQsqaUBKTNV-1">
          <mxGeometry x="336" y="975" width="200" height="60" as="geometry" />
        </mxCell>
        <mxCell id="Mil7X2L2uE1XehQc7Dlf-4" value="&lt;div align=&quot;left&quot;&gt;i2n = punto_medio(funzione&amp;nbsp;&lt;/div&gt;&lt;div style=&quot;font-size: 13px;&quot; align=&quot;left&quot;&gt;&lt;font style=&quot;font-size: 12px;&quot;&gt;coseno, a, b, 2n)&lt;/font&gt;&lt;/div&gt;" style="html=1;shadow=0;dashed=0;align=left;verticalAlign=middle;shape=mxgraph.arrows2.calloutArrow;dy=10;dx=20;notch=151;arrowHead=20;" vertex="1" parent="WIyWlLk6GJQsqaUBKTNV-1">
          <mxGeometry x="627" y="975" width="200" height="60" as="geometry" />
        </mxCell>
        <mxCell id="Mil7X2L2uE1XehQc7Dlf-5" value="&lt;div align=&quot;left&quot;&gt;i2n = punto_medio(funzione&amp;nbsp;&lt;/div&gt;&lt;div style=&quot;font-size: 13px;&quot; align=&quot;left&quot;&gt;&lt;font style=&quot;font-size: 12px;&quot;&gt;radice quadrata, a, b, 2n)&lt;/font&gt;&lt;/div&gt;" style="html=1;shadow=0;dashed=0;align=left;verticalAlign=middle;shape=mxgraph.arrows2.calloutArrow;dy=10;dx=20;notch=151;arrowHead=20;" vertex="1" parent="WIyWlLk6GJQsqaUBKTNV-1">
          <mxGeometry x="626" y="1085" width="200" height="60" as="geometry" />
        </mxCell>
        <mxCell id="Mil7X2L2uE1XehQc7Dlf-6" value="&lt;div align=&quot;left&quot;&gt;i2n = punto_medio(funzione&amp;nbsp;&lt;/div&gt;&lt;div style=&quot;font-size: 13px;&quot; align=&quot;left&quot;&gt;&lt;font style=&quot;font-size: 12px;&quot;&gt;logaritmo, a, b, 2n)&lt;/font&gt;&lt;/div&gt;" style="html=1;shadow=0;dashed=0;align=left;verticalAlign=middle;shape=mxgraph.arrows2.calloutArrow;dy=10;dx=20;notch=151;arrowHead=20;" vertex="1" parent="WIyWlLk6GJQsqaUBKTNV-1">
          <mxGeometry x="626" y="1185" width="200" height="60" as="geometry" />
        </mxCell>
        <mxCell id="Mil7X2L2uE1XehQc7Dlf-7" value="&lt;div align=&quot;left&quot;&gt;i2n = punto_medio(funzione&amp;nbsp;&lt;/div&gt;&lt;div style=&quot;font-size: 13px;&quot; align=&quot;left&quot;&gt;&lt;font style=&quot;font-size: 12px;&quot;&gt;esponenziale, a, b, 2n)&lt;/font&gt;&lt;/div&gt;" style="html=1;shadow=0;dashed=0;align=left;verticalAlign=middle;shape=mxgraph.arrows2.calloutArrow;dy=10;dx=20;notch=151;arrowHead=20;" vertex="1" parent="WIyWlLk6GJQsqaUBKTNV-1">
          <mxGeometry x="627" y="1285" width="200" height="60" as="geometry" />
        </mxCell>
        <mxCell id="Mil7X2L2uE1XehQc7Dlf-8" value="&lt;div align=&quot;left&quot;&gt;in = punto_medio(funzione&amp;nbsp;&lt;/div&gt;&lt;div align=&quot;left&quot;&gt;radice quadrata, a, b, n)&lt;/div&gt;" style="html=1;shadow=0;dashed=0;align=left;verticalAlign=middle;shape=mxgraph.arrows2.calloutArrow;dy=10;dx=20;notch=151;arrowHead=20;" vertex="1" parent="WIyWlLk6GJQsqaUBKTNV-1">
          <mxGeometry x="336" y="1085" width="200" height="60" as="geometry" />
        </mxCell>
        <mxCell id="Mil7X2L2uE1XehQc7Dlf-9" value="&lt;div align=&quot;left&quot;&gt;in = punto_medio(funzione&amp;nbsp;&lt;/div&gt;&lt;div align=&quot;left&quot;&gt;logaritmo, a, b, n)&lt;/div&gt;" style="html=1;shadow=0;dashed=0;align=left;verticalAlign=middle;shape=mxgraph.arrows2.calloutArrow;dy=10;dx=20;notch=151;arrowHead=20;" vertex="1" parent="WIyWlLk6GJQsqaUBKTNV-1">
          <mxGeometry x="336" y="1185" width="200" height="60" as="geometry" />
        </mxCell>
        <mxCell id="Mil7X2L2uE1XehQc7Dlf-10" value="&lt;div align=&quot;left&quot;&gt;in = punto_medio(funzione&amp;nbsp;&lt;/div&gt;&lt;div align=&quot;left&quot;&gt;esponenziale, a, b, n)&lt;/div&gt;" style="html=1;shadow=0;dashed=0;align=left;verticalAlign=middle;shape=mxgraph.arrows2.calloutArrow;dy=10;dx=20;notch=151;arrowHead=20;" vertex="1" parent="WIyWlLk6GJQsqaUBKTNV-1">
          <mxGeometry x="336" y="1285" width="200" height="60" as="geometry" />
        </mxCell>
        <mxCell id="Mil7X2L2uE1XehQc7Dlf-11" value="&lt;div align=&quot;left&quot;&gt;in = punto_medio(funzione&amp;nbsp;&lt;/div&gt;&lt;div align=&quot;left&quot;&gt;coseno, a, b, n)&lt;/div&gt;" style="html=1;shadow=0;dashed=0;align=left;verticalAlign=middle;shape=mxgraph.arrows2.calloutArrow;dy=10;dx=20;notch=151;arrowHead=20;" vertex="1" parent="WIyWlLk6GJQsqaUBKTNV-1">
          <mxGeometry x="336" y="875" width="200" height="60" as="geometry" />
        </mxCell>
        <mxCell id="Mil7X2L2uE1XehQc7Dlf-13" value="&lt;div align=&quot;left&quot;&gt;im =&amp;nbsp; Cavalieri_Simpson(funzione&amp;nbsp;&lt;/div&gt;&lt;div align=&quot;left&quot;&gt;coseno, a, b, m)&lt;/div&gt;" style="html=1;shadow=0;dashed=0;align=left;verticalAlign=middle;shape=mxgraph.arrows2.calloutArrow;dy=10;dx=20;notch=190.25;arrowHead=10;" vertex="1" parent="WIyWlLk6GJQsqaUBKTNV-1">
          <mxGeometry x="329.75" y="1965" width="240.25" height="60" as="geometry" />
        </mxCell>
        <mxCell id="Mil7X2L2uE1XehQc7Dlf-14" value="&lt;div align=&quot;left&quot;&gt;i2m =&amp;nbsp; Cavalieri_Simpson(funzione&amp;nbsp;&lt;/div&gt;&lt;div align=&quot;left&quot;&gt;coseno, a, b, 2m)&lt;/div&gt;" style="html=1;shadow=0;dashed=0;align=left;verticalAlign=middle;shape=mxgraph.arrows2.calloutArrow;dy=10;dx=20;notch=190.25;arrowHead=10;" vertex="1" parent="WIyWlLk6GJQsqaUBKTNV-1">
          <mxGeometry x="600" y="1965" width="230.25" height="60" as="geometry" />
        </mxCell>
        <mxCell id="Mil7X2L2uE1XehQc7Dlf-16" value="&lt;div align=&quot;left&quot;&gt;im =&amp;nbsp; Cavalieri_Simpson(funzione&amp;nbsp;&lt;/div&gt;&lt;div align=&quot;left&quot;&gt;seno, a, b, m)&lt;/div&gt;" style="html=1;shadow=0;dashed=0;align=left;verticalAlign=middle;shape=mxgraph.arrows2.calloutArrow;dy=10;dx=20;notch=190.25;arrowHead=10;" vertex="1" parent="WIyWlLk6GJQsqaUBKTNV-1">
          <mxGeometry x="329.75" y="2065" width="240.25" height="60" as="geometry" />
        </mxCell>
        <mxCell id="Mil7X2L2uE1XehQc7Dlf-20" style="edgeStyle=orthogonalEdgeStyle;rounded=0;orthogonalLoop=1;jettySize=auto;html=1;exitX=0;exitY=0;exitDx=230;exitDy=30;exitPerimeter=0;" edge="1" parent="WIyWlLk6GJQsqaUBKTNV-1" source="Mil7X2L2uE1XehQc7Dlf-17">
          <mxGeometry relative="1" as="geometry">
            <mxPoint x="880" y="2095" as="targetPoint" />
          </mxGeometry>
        </mxCell>
        <mxCell id="Mil7X2L2uE1XehQc7Dlf-17" value="&lt;div align=&quot;left&quot;&gt;i2m =&amp;nbsp; Cavalieri_Simpson(funzione&amp;nbsp;&lt;/div&gt;&lt;div align=&quot;left&quot;&gt;coseno, a, b, 2m)&lt;/div&gt;" style="html=1;shadow=0;dashed=0;align=left;verticalAlign=middle;shape=mxgraph.arrows2.calloutArrow;dy=10;dx=20;notch=190.25;arrowHead=10;" vertex="1" parent="WIyWlLk6GJQsqaUBKTNV-1">
          <mxGeometry x="600" y="2065" width="230" height="60" as="geometry" />
        </mxCell>
        <mxCell id="Mil7X2L2uE1XehQc7Dlf-19" style="edgeStyle=orthogonalEdgeStyle;rounded=0;orthogonalLoop=1;jettySize=auto;html=1;exitX=0;exitY=0;exitDx=240.25;exitDy=30;exitPerimeter=0;entryX=0;entryY=0.5;entryDx=0;entryDy=0;entryPerimeter=0;" edge="1" parent="WIyWlLk6GJQsqaUBKTNV-1" source="Mil7X2L2uE1XehQc7Dlf-13" target="Mil7X2L2uE1XehQc7Dlf-14">
          <mxGeometry relative="1" as="geometry" />
        </mxCell>
        <mxCell id="Mil7X2L2uE1XehQc7Dlf-21" value="&lt;div align=&quot;left&quot;&gt;im =&amp;nbsp; Cavalieri_Simpson(funzione&amp;nbsp;&lt;/div&gt;&lt;div align=&quot;left&quot;&gt;radice quadrata, a, b, m)&lt;/div&gt;" style="html=1;shadow=0;dashed=0;align=left;verticalAlign=middle;shape=mxgraph.arrows2.calloutArrow;dy=10;dx=20;notch=190.25;arrowHead=10;" vertex="1" parent="WIyWlLk6GJQsqaUBKTNV-1">
          <mxGeometry x="329.75" y="2175" width="240.25" height="60" as="geometry" />
        </mxCell>
        <mxCell id="Mil7X2L2uE1XehQc7Dlf-29" style="edgeStyle=orthogonalEdgeStyle;rounded=0;orthogonalLoop=1;jettySize=auto;html=1;exitX=0;exitY=0;exitDx=230;exitDy=30;exitPerimeter=0;" edge="1" parent="WIyWlLk6GJQsqaUBKTNV-1" source="Mil7X2L2uE1XehQc7Dlf-23">
          <mxGeometry relative="1" as="geometry">
            <mxPoint x="880" y="2205" as="targetPoint" />
          </mxGeometry>
        </mxCell>
        <mxCell id="Mil7X2L2uE1XehQc7Dlf-23" value="&lt;div align=&quot;left&quot;&gt;i2m =&amp;nbsp; Cavalieri_Simpson(funzione&amp;nbsp;&lt;/div&gt;&lt;div align=&quot;left&quot;&gt;radice quadrata, a, b, 2m)&lt;/div&gt;" style="html=1;shadow=0;dashed=0;align=left;verticalAlign=middle;shape=mxgraph.arrows2.calloutArrow;dy=10;dx=20;notch=190.25;arrowHead=10;" vertex="1" parent="WIyWlLk6GJQsqaUBKTNV-1">
          <mxGeometry x="600" y="2175" width="230" height="60" as="geometry" />
        </mxCell>
        <mxCell id="Mil7X2L2uE1XehQc7Dlf-28" style="edgeStyle=orthogonalEdgeStyle;rounded=0;orthogonalLoop=1;jettySize=auto;html=1;exitX=0;exitY=0;exitDx=240.25;exitDy=30;exitPerimeter=0;entryX=0;entryY=0.5;entryDx=0;entryDy=0;entryPerimeter=0;" edge="1" parent="WIyWlLk6GJQsqaUBKTNV-1" source="Mil7X2L2uE1XehQc7Dlf-21" target="Mil7X2L2uE1XehQc7Dlf-23">
          <mxGeometry relative="1" as="geometry" />
        </mxCell>
        <mxCell id="Mil7X2L2uE1XehQc7Dlf-30" value="&lt;div align=&quot;left&quot;&gt;im =&amp;nbsp; Cavalieri_Simpson(funzione&amp;nbsp;&lt;/div&gt;&lt;div align=&quot;left&quot;&gt;logaritmo, a, b, m)&lt;/div&gt;" style="html=1;shadow=0;dashed=0;align=left;verticalAlign=middle;shape=mxgraph.arrows2.calloutArrow;dy=10;dx=20;notch=190.25;arrowHead=10;" vertex="1" parent="WIyWlLk6GJQsqaUBKTNV-1">
          <mxGeometry x="330" y="2272.5" width="240.25" height="60" as="geometry" />
        </mxCell>
        <mxCell id="Mil7X2L2uE1XehQc7Dlf-34" style="edgeStyle=orthogonalEdgeStyle;rounded=0;orthogonalLoop=1;jettySize=auto;html=1;exitX=0;exitY=0;exitDx=230;exitDy=30;exitPerimeter=0;" edge="1" parent="WIyWlLk6GJQsqaUBKTNV-1" source="Mil7X2L2uE1XehQc7Dlf-31">
          <mxGeometry relative="1" as="geometry">
            <mxPoint x="880" y="2302.714285714286" as="targetPoint" />
          </mxGeometry>
        </mxCell>
        <mxCell id="Mil7X2L2uE1XehQc7Dlf-31" value="&lt;div align=&quot;left&quot;&gt;i2m =&amp;nbsp; Cavalieri_Simpson(funzione&amp;nbsp;&lt;/div&gt;&lt;div align=&quot;left&quot;&gt;logaritmo, a, b, 2m)&lt;/div&gt;" style="html=1;shadow=0;dashed=0;align=left;verticalAlign=middle;shape=mxgraph.arrows2.calloutArrow;dy=10;dx=20;notch=190.25;arrowHead=10;" vertex="1" parent="WIyWlLk6GJQsqaUBKTNV-1">
          <mxGeometry x="600" y="2272.5" width="230" height="60" as="geometry" />
        </mxCell>
        <mxCell id="Mil7X2L2uE1XehQc7Dlf-33" style="edgeStyle=orthogonalEdgeStyle;rounded=0;orthogonalLoop=1;jettySize=auto;html=1;exitX=0;exitY=0;exitDx=240.25;exitDy=30;exitPerimeter=0;entryX=-0.006;entryY=0.494;entryDx=0;entryDy=0;entryPerimeter=0;" edge="1" parent="WIyWlLk6GJQsqaUBKTNV-1" source="Mil7X2L2uE1XehQc7Dlf-30" target="Mil7X2L2uE1XehQc7Dlf-31">
          <mxGeometry relative="1" as="geometry">
            <Array as="points">
              <mxPoint x="584" y="2302" />
            </Array>
          </mxGeometry>
        </mxCell>
        <mxCell id="Mil7X2L2uE1XehQc7Dlf-35" value="&lt;div align=&quot;left&quot;&gt;im =&amp;nbsp; Cavalieri_Simpson(funzione&amp;nbsp;&lt;/div&gt;&lt;div align=&quot;left&quot;&gt;esponenziale, a, b, m)&lt;/div&gt;" style="html=1;shadow=0;dashed=0;align=left;verticalAlign=middle;shape=mxgraph.arrows2.calloutArrow;dy=10;dx=20;notch=190.25;arrowHead=10;" vertex="1" parent="WIyWlLk6GJQsqaUBKTNV-1">
          <mxGeometry x="330" y="2375" width="240.25" height="60" as="geometry" />
        </mxCell>
        <mxCell id="Mil7X2L2uE1XehQc7Dlf-39" style="edgeStyle=orthogonalEdgeStyle;rounded=0;orthogonalLoop=1;jettySize=auto;html=1;exitX=0;exitY=0;exitDx=230;exitDy=30;exitPerimeter=0;" edge="1" parent="WIyWlLk6GJQsqaUBKTNV-1" source="Mil7X2L2uE1XehQc7Dlf-36">
          <mxGeometry relative="1" as="geometry">
            <mxPoint x="880" y="2405" as="targetPoint" />
          </mxGeometry>
        </mxCell>
        <mxCell id="Mil7X2L2uE1XehQc7Dlf-36" value="&lt;div align=&quot;left&quot;&gt;i2m =&amp;nbsp; Cavalieri_Simpson(funzione&amp;nbsp;&lt;/div&gt;&lt;div align=&quot;left&quot;&gt;esponenziale, a, b, 2m)&lt;/div&gt;" style="html=1;shadow=0;dashed=0;align=left;verticalAlign=middle;shape=mxgraph.arrows2.calloutArrow;dy=10;dx=20;notch=190.25;arrowHead=10;" vertex="1" parent="WIyWlLk6GJQsqaUBKTNV-1">
          <mxGeometry x="600" y="2375" width="230" height="60" as="geometry" />
        </mxCell>
        <mxCell id="Mil7X2L2uE1XehQc7Dlf-38" style="edgeStyle=orthogonalEdgeStyle;rounded=0;orthogonalLoop=1;jettySize=auto;html=1;exitX=0;exitY=0;exitDx=240.25;exitDy=30;exitPerimeter=0;entryX=-0.008;entryY=0.5;entryDx=0;entryDy=0;entryPerimeter=0;" edge="1" parent="WIyWlLk6GJQsqaUBKTNV-1" source="Mil7X2L2uE1XehQc7Dlf-35" target="Mil7X2L2uE1XehQc7Dlf-36">
          <mxGeometry relative="1" as="geometry" />
        </mxCell>
      </root>
    </mxGraphModel>
  </diagram>
</mxfile>
